<svg width="265" height="108" viewBox="0 0 265 108" fill="none" xmlns="http://www.w3.org/2000/svg">
<g filter="url(#filter0_dddd_2168_949)">
<path d="M4 31.25L261 0L247.72 100L30.5593 85.9375L4 31.25Z" fill="#F77F7F"/>
</g>
<g filter="url(#filter1_d_2168_949)">
<path d="M46.8834 44.22H51.8034L49.3634 38.2L46.8834 44.22ZM41.2634 50L47.6234 35.72H51.1834L57.5434 50H54.2034L52.7034 46.46H45.9834L44.5034 50H41.2634ZM70.4013 43.12H67.5213C67.3213 42.02 66.1613 41.12 64.5813 41.12C62.0213 41.12 60.9013 42.86 60.9013 44.7C60.9013 46.54 61.9013 48.28 64.2813 48.28C66.4213 48.28 67.0013 47.44 67.5813 45.94H70.4613C69.8213 50.34 65.3213 50.4 64.5813 50.4C59.8413 50.4 58.0213 47.62 58.0213 44.7C58.0213 41.28 60.4813 39 64.5813 39C66.1813 39 69.8213 39.54 70.4013 43.12ZM84.0927 43.12H81.2127C81.0127 42.02 79.8527 41.12 78.2727 41.12C75.7127 41.12 74.5927 42.86 74.5927 44.7C74.5927 46.54 75.5927 48.28 77.9727 48.28C80.1127 48.28 80.6927 47.44 81.2727 45.94H84.1527C83.5127 50.34 79.0127 50.4 78.2727 50.4C73.5327 50.4 71.7127 47.62 71.7127 44.7C71.7127 41.28 74.1727 39 78.2727 39C79.8727 39 83.5127 39.54 84.0927 43.12ZM98.4041 45.4H88.4041C88.4641 46.58 89.2641 48.4 92.0041 48.4C93.8241 48.4 94.6241 47.76 95.1641 46.88H98.1641C97.5641 48.06 96.1241 50.4 92.0841 50.4C87.3041 50.4 85.5241 47.62 85.5241 44.8C85.5241 41.26 88.1441 39 91.9041 39C96.6041 39 98.4041 41.9 98.4041 45V45.4ZM88.4041 43.64H95.5241C95.1841 41.52 93.3041 40.88 91.9441 40.88C90.6641 40.88 88.8641 41.48 88.4041 43.64ZM90.3041 37.94L92.0841 35.1H95.4841L92.6841 37.94H90.3041ZM102.718 44.74C102.718 46.54 103.698 48.28 106.298 48.28C108.878 48.28 109.858 46.54 109.858 44.74C109.858 42.98 108.878 41.24 106.298 41.24C103.698 41.24 102.718 42.98 102.718 44.74ZM112.498 35.48V50H109.738V48.54H109.698C109.498 49.18 107.838 50.4 105.638 50.4C101.598 50.4 99.8377 47.46 99.8377 44.74C99.8377 42.06 101.598 39.12 105.638 39.12C107.298 39.12 108.878 39.64 109.698 40.92H109.738V35.48H112.498ZM127.271 45.4H117.271C117.331 46.58 118.131 48.4 120.871 48.4C122.691 48.4 123.491 47.76 124.031 46.88H127.031C126.431 48.06 124.991 50.4 120.951 50.4C116.171 50.4 114.391 47.62 114.391 44.8C114.391 41.26 117.011 39 120.771 39C125.471 39 127.271 41.9 127.271 45V45.4ZM117.271 43.64H124.391C124.051 41.52 122.171 40.88 120.811 40.88C119.531 40.88 117.731 41.48 117.271 43.64ZM129.165 50V39.4H131.925V41.46H131.965C132.705 40.26 133.845 39.12 135.965 39.12C136.385 39.12 136.705 39.16 137.065 39.22V41.94C136.305 41.7 135.785 41.68 135.305 41.68C133.905 41.68 131.925 42.42 131.925 44.88V50H129.165ZM156.834 42.56V47.58C156.834 48.16 157.254 48.18 157.434 48.18C157.694 48.18 158.114 48.16 158.334 48.12V50.06C157.794 50.16 157.314 50.3 156.374 50.3C154.574 50.3 154.374 49.34 154.294 48.94C153.754 49.46 152.414 50.4 149.314 50.4C146.554 50.4 144.994 49.16 144.994 47.08C144.994 44.16 147.994 43.9 149.754 43.74C153.714 43.36 154.134 43.22 154.134 42.4C154.134 41.18 152.734 40.88 151.134 40.88C149.314 40.88 148.334 41.46 148.234 42.64H145.534C145.934 39.86 147.994 39 151.134 39C156.674 39 156.834 41.18 156.834 42.56ZM154.074 45.74V44.72C153.274 45.06 152.414 45.16 150.454 45.38C148.374 45.62 147.874 46.08 147.874 46.98C147.874 48.38 149.154 48.64 150.094 48.64C151.574 48.64 154.074 48.08 154.074 45.74ZM151.274 35.1L153.054 37.94H150.674L147.874 35.1H151.274ZM166.647 50V35.48H169.407V50H166.647ZM172.564 38.56V35.72H175.684V37.88C175.684 39.98 174.824 41.6 172.564 41.9V40.72C173.784 40.32 173.964 39.78 174.044 38.56H172.564ZM190.135 42.56V47.58C190.135 48.16 190.555 48.18 190.735 48.18C190.995 48.18 191.415 48.16 191.635 48.12V50.06C191.095 50.16 190.615 50.3 189.675 50.3C187.875 50.3 187.675 49.34 187.595 48.94C187.055 49.46 185.715 50.4 182.615 50.4C179.855 50.4 178.295 49.16 178.295 47.08C178.295 44.16 181.295 43.9 183.055 43.74C187.015 43.36 187.435 43.22 187.435 42.4C187.435 41.18 186.035 40.88 184.435 40.88C182.615 40.88 181.635 41.46 181.535 42.64H178.835C179.235 39.86 181.295 39 184.435 39C189.975 39 190.135 41.18 190.135 42.56ZM187.375 45.74V44.72C186.575 45.06 185.715 45.16 183.755 45.38C181.675 45.62 181.175 46.08 181.175 46.98C181.175 48.38 182.455 48.64 183.395 48.64C184.875 48.64 187.375 48.08 187.375 45.74ZM192.837 50V39.4H195.597V41.46H195.637C196.377 40.26 197.517 39.12 199.637 39.12C200.057 39.12 200.377 39.16 200.737 39.22V41.94C199.977 41.7 199.457 41.68 198.977 41.68C197.577 41.68 195.597 42.42 195.597 44.88V50H192.837ZM202.955 47.04V41.4H200.755V39.4H202.955V36.12H205.715V39.4H208.595V41.4H205.715V46.24C205.715 47.46 205.775 48.12 206.715 48.12C207.395 48.12 208.035 48.1 208.695 48.08V50.08C207.955 50.18 207.415 50.24 206.575 50.24C203.215 50.24 202.955 49.04 202.955 47.04ZM210.319 50V39.4H213.079V50H210.319ZM210.319 37.72V35.48H213.079V37.72H210.319ZM227.315 43.12H224.435C224.235 42.02 223.075 41.12 221.495 41.12C218.935 41.12 217.815 42.86 217.815 44.7C217.815 46.54 218.815 48.28 221.195 48.28C223.335 48.28 223.915 47.44 224.495 45.94H227.375C226.735 50.34 222.235 50.4 221.495 50.4C216.755 50.4 214.935 47.62 214.935 44.7C214.935 41.28 217.395 39 221.495 39C223.095 39 226.735 39.54 227.315 43.12ZM229.167 50V35.48H231.927V50H229.167ZM246.783 45.4H236.783C236.843 46.58 237.643 48.4 240.383 48.4C242.203 48.4 243.003 47.76 243.543 46.88H246.543C245.943 48.06 244.503 50.4 240.463 50.4C235.683 50.4 233.903 47.62 233.903 44.8C233.903 41.26 236.523 39 240.283 39C244.983 39 246.783 41.9 246.783 45V45.4ZM236.783 43.64H243.903C243.563 41.52 241.683 40.88 240.323 40.88C239.043 40.88 237.243 41.48 236.783 43.64ZM86.9843 68.68H89.9843C90.0643 70.28 91.9043 70.52 92.9043 70.52C94.2843 70.52 95.7843 70.16 95.7843 69.16C95.7843 68.34 95.3243 68.06 92.3443 67.66C89.0643 67.22 87.3443 66.84 87.3443 64.42C87.3443 61.4 90.8643 61 92.6443 61C94.2843 61 98.2243 61.24 98.3843 64.64H95.5043C95.2843 63.06 93.4443 62.88 92.5043 62.88C90.9443 62.88 90.1043 63.54 90.1043 64.1C90.1043 64.96 90.3643 65.1 93.0243 65.48C96.5043 65.98 98.7843 66.32 98.7843 68.78C98.7843 71.48 96.2043 72.4 92.9243 72.4C90.6643 72.4 87.0843 71.92 86.9843 68.68ZM100.493 68.48V61.4H103.253V67.44C103.253 69.06 103.633 70.28 105.993 70.28C107.213 70.28 109.213 69.48 109.213 67.22V61.4H111.973V72H109.213V70.52H109.173C108.273 71.66 106.873 72.4 104.993 72.4C102.713 72.4 100.493 71.58 100.493 68.48ZM114.204 72V61.4H116.964V63.46H117.004C117.744 62.26 118.884 61.12 121.004 61.12C121.424 61.12 121.744 61.16 122.104 61.22V63.94C121.344 63.7 120.824 63.68 120.344 63.68C118.944 63.68 116.964 64.42 116.964 66.88V72H114.204ZM130.573 72V57.48H133.333V72H130.573ZM148.189 67.4H138.189C138.249 68.58 139.049 70.4 141.789 70.4C143.609 70.4 144.409 69.76 144.949 68.88H147.949C147.349 70.06 145.909 72.4 141.869 72.4C137.089 72.4 135.309 69.62 135.309 66.8C135.309 63.26 137.929 61 141.689 61C146.389 61 148.189 63.9 148.189 67V67.4ZM138.189 65.64H145.309C144.969 63.52 143.089 62.88 141.729 62.88C140.449 62.88 138.649 63.48 138.189 65.64ZM157.194 72V57.48H159.954V72H157.194ZM162.35 72V61.4H165.11V72H162.35ZM162.35 59.72V57.48H165.11V59.72H162.35ZM171.127 72L166.287 61.4H169.407L172.567 69.28L175.847 61.4H178.967L174.127 72H171.127ZM180.024 72V61.4H182.784V63.46H182.824C183.564 62.26 184.704 61.12 186.824 61.12C187.244 61.12 187.564 61.16 187.924 61.22V63.94C187.164 63.7 186.644 63.68 186.164 63.68C184.764 63.68 182.784 64.42 182.784 66.88V72H180.024ZM201.822 67.4H191.822C191.882 68.58 192.682 70.4 195.422 70.4C197.242 70.4 198.042 69.76 198.582 68.88H201.582C200.982 70.06 199.542 72.4 195.502 72.4C190.722 72.4 188.942 69.62 188.942 66.8C188.942 63.26 191.562 61 195.322 61C200.022 61 201.822 63.9 201.822 67V67.4ZM191.822 65.64H198.942C198.602 63.52 196.722 62.88 195.362 62.88C194.082 62.88 192.282 63.48 191.822 65.64Z" fill="black"/>
</g>
<defs>
<filter id="filter0_dddd_2168_949" x="0" y="0" width="265" height="108" filterUnits="userSpaceOnUse" color-interpolation-filters="sRGB">
<feFlood flood-opacity="0" result="BackgroundImageFix"/>
<feColorMatrix in="SourceAlpha" type="matrix" values="0 0 0 0 0 0 0 0 0 0 0 0 0 0 0 0 0 0 127 0" result="hardAlpha"/>
<feOffset dy="4"/>
<feGaussianBlur stdDeviation="2"/>
<feComposite in2="hardAlpha" operator="out"/>
<feColorMatrix type="matrix" values="0 0 0 0 0 0 0 0 0 0 0 0 0 0 0 0 0 0 0.25 0"/>
<feBlend mode="normal" in2="BackgroundImageFix" result="effect1_dropShadow_2168_949"/>
<feColorMatrix in="SourceAlpha" type="matrix" values="0 0 0 0 0 0 0 0 0 0 0 0 0 0 0 0 0 0 127 0" result="hardAlpha"/>
<feOffset dy="4"/>
<feGaussianBlur stdDeviation="2"/>
<feComposite in2="hardAlpha" operator="out"/>
<feColorMatrix type="matrix" values="0 0 0 0 0 0 0 0 0 0 0 0 0 0 0 0 0 0 0.25 0"/>
<feBlend mode="normal" in2="effect1_dropShadow_2168_949" result="effect2_dropShadow_2168_949"/>
<feColorMatrix in="SourceAlpha" type="matrix" values="0 0 0 0 0 0 0 0 0 0 0 0 0 0 0 0 0 0 127 0" result="hardAlpha"/>
<feOffset dy="4"/>
<feGaussianBlur stdDeviation="2"/>
<feComposite in2="hardAlpha" operator="out"/>
<feColorMatrix type="matrix" values="0 0 0 0 0 0 0 0 0 0 0 0 0 0 0 0 0 0 0.25 0"/>
<feBlend mode="normal" in2="effect2_dropShadow_2168_949" result="effect3_dropShadow_2168_949"/>
<feColorMatrix in="SourceAlpha" type="matrix" values="0 0 0 0 0 0 0 0 0 0 0 0 0 0 0 0 0 0 127 0" result="hardAlpha"/>
<feOffset dy="4"/>
<feGaussianBlur stdDeviation="2"/>
<feComposite in2="hardAlpha" operator="out"/>
<feColorMatrix type="matrix" values="0 0 0 0 0 0 0 0 0 0 0 0 0 0 0 0 0 0 0.25 0"/>
<feBlend mode="normal" in2="effect3_dropShadow_2168_949" result="effect4_dropShadow_2168_949"/>
<feBlend mode="normal" in="SourceGraphic" in2="effect4_dropShadow_2168_949" result="shape"/>
</filter>
<filter id="filter1_d_2168_949" x="37.2633" y="35.1" width="213.52" height="45.3" filterUnits="userSpaceOnUse" color-interpolation-filters="sRGB">
<feFlood flood-opacity="0" result="BackgroundImageFix"/>
<feColorMatrix in="SourceAlpha" type="matrix" values="0 0 0 0 0 0 0 0 0 0 0 0 0 0 0 0 0 0 127 0" result="hardAlpha"/>
<feOffset dy="4"/>
<feGaussianBlur stdDeviation="2"/>
<feComposite in2="hardAlpha" operator="out"/>
<feColorMatrix type="matrix" values="0 0 0 0 0 0 0 0 0 0 0 0 0 0 0 0 0 0 0.25 0"/>
<feBlend mode="normal" in2="BackgroundImageFix" result="effect1_dropShadow_2168_949"/>
<feBlend mode="normal" in="SourceGraphic" in2="effect1_dropShadow_2168_949" result="shape"/>
</filter>
</defs>
</svg>
