<svg width="265" height="108" viewBox="0 0 265 108" fill="none" xmlns="http://www.w3.org/2000/svg">
<g filter="url(#filter0_dddd_2189_2550)">
<path d="M4 31.25L261 0L247.72 100L30.5593 85.9375L4 31.25Z" fill="#F77F7F"/>
</g>
<g filter="url(#filter1_d_2189_2550)">
<path d="M41.8834 44.22H46.8034L44.3634 38.2L41.8834 44.22ZM36.2634 50L42.6234 35.72H46.1834L52.5434 50H49.2034L47.7034 46.46H40.9834L39.5034 50H36.2634ZM65.4013 43.12H62.5213C62.3213 42.02 61.1613 41.12 59.5813 41.12C57.0213 41.12 55.9013 42.86 55.9013 44.7C55.9013 46.54 56.9013 48.28 59.2813 48.28C61.4213 48.28 62.0013 47.44 62.5813 45.94H65.4613C64.8213 50.34 60.3213 50.4 59.5813 50.4C54.8413 50.4 53.0213 47.62 53.0213 44.7C53.0213 41.28 55.4813 39 59.5813 39C61.1813 39 64.8213 39.54 65.4013 43.12ZM79.0927 43.12H76.2127C76.0127 42.02 74.8527 41.12 73.2727 41.12C70.7127 41.12 69.5927 42.86 69.5927 44.7C69.5927 46.54 70.5927 48.28 72.9727 48.28C75.1127 48.28 75.6927 47.44 76.2727 45.94H79.1527C78.5127 50.34 74.0127 50.4 73.2727 50.4C68.5327 50.4 66.7127 47.62 66.7127 44.7C66.7127 41.28 69.1727 39 73.2727 39C74.8727 39 78.5127 39.54 79.0927 43.12ZM93.4041 45.4H83.4041C83.4641 46.58 84.2641 48.4 87.0041 48.4C88.8241 48.4 89.6241 47.76 90.1641 46.88H93.1641C92.5641 48.06 91.1241 50.4 87.0841 50.4C82.3041 50.4 80.5241 47.62 80.5241 44.8C80.5241 41.26 83.1441 39 86.9041 39C91.6041 39 93.4041 41.9 93.4041 45V45.4ZM83.4041 43.64H90.5241C90.1841 41.52 88.3041 40.88 86.9441 40.88C85.6641 40.88 83.8641 41.48 83.4041 43.64ZM85.3041 37.94L87.0841 35.1H90.4841L87.6841 37.94H85.3041ZM97.7177 44.74C97.7177 46.54 98.6977 48.28 101.298 48.28C103.878 48.28 104.858 46.54 104.858 44.74C104.858 42.98 103.878 41.24 101.298 41.24C98.6977 41.24 97.7177 42.98 97.7177 44.74ZM107.498 35.48V50H104.738V48.54H104.698C104.498 49.18 102.838 50.4 100.638 50.4C96.5977 50.4 94.8377 47.46 94.8377 44.74C94.8377 42.06 96.5977 39.12 100.638 39.12C102.298 39.12 103.878 39.64 104.698 40.92H104.738V35.48H107.498ZM122.271 45.4H112.271C112.331 46.58 113.131 48.4 115.871 48.4C117.691 48.4 118.491 47.76 119.031 46.88H122.031C121.431 48.06 119.991 50.4 115.951 50.4C111.171 50.4 109.391 47.62 109.391 44.8C109.391 41.26 112.011 39 115.771 39C120.471 39 122.271 41.9 122.271 45V45.4ZM112.271 43.64H119.391C119.051 41.52 117.171 40.88 115.811 40.88C114.531 40.88 112.731 41.48 112.271 43.64ZM124.165 50V39.4H126.925V41.46H126.965C127.705 40.26 128.845 39.12 130.965 39.12C131.385 39.12 131.705 39.16 132.065 39.22V41.94C131.305 41.7 130.785 41.68 130.305 41.68C128.905 41.68 126.925 42.42 126.925 44.88V50H124.165ZM151.834 42.56V47.58C151.834 48.16 152.254 48.18 152.434 48.18C152.694 48.18 153.114 48.16 153.334 48.12V50.06C152.794 50.16 152.314 50.3 151.374 50.3C149.574 50.3 149.374 49.34 149.294 48.94C148.754 49.46 147.414 50.4 144.314 50.4C141.554 50.4 139.994 49.16 139.994 47.08C139.994 44.16 142.994 43.9 144.754 43.74C148.714 43.36 149.134 43.22 149.134 42.4C149.134 41.18 147.734 40.88 146.134 40.88C144.314 40.88 143.334 41.46 143.234 42.64H140.534C140.934 39.86 142.994 39 146.134 39C151.674 39 151.834 41.18 151.834 42.56ZM149.074 45.74V44.72C148.274 45.06 147.414 45.16 145.454 45.38C143.374 45.62 142.874 46.08 142.874 46.98C142.874 48.38 144.154 48.64 145.094 48.64C146.574 48.64 149.074 48.08 149.074 45.74ZM146.274 35.1L148.054 37.94H145.674L142.874 35.1H146.274ZM161.647 50V35.48H164.407V50H161.647ZM167.564 38.56V35.72H170.684V37.88C170.684 39.98 169.824 41.6 167.564 41.9V40.72C168.784 40.32 168.964 39.78 169.044 38.56H167.564ZM185.135 42.56V47.58C185.135 48.16 185.555 48.18 185.735 48.18C185.995 48.18 186.415 48.16 186.635 48.12V50.06C186.095 50.16 185.615 50.3 184.675 50.3C182.875 50.3 182.675 49.34 182.595 48.94C182.055 49.46 180.715 50.4 177.615 50.4C174.855 50.4 173.295 49.16 173.295 47.08C173.295 44.16 176.295 43.9 178.055 43.74C182.015 43.36 182.435 43.22 182.435 42.4C182.435 41.18 181.035 40.88 179.435 40.88C177.615 40.88 176.635 41.46 176.535 42.64H173.835C174.235 39.86 176.295 39 179.435 39C184.975 39 185.135 41.18 185.135 42.56ZM182.375 45.74V44.72C181.575 45.06 180.715 45.16 178.755 45.38C176.675 45.62 176.175 46.08 176.175 46.98C176.175 48.38 177.455 48.64 178.395 48.64C179.875 48.64 182.375 48.08 182.375 45.74ZM187.837 50V39.4H190.597V41.46H190.637C191.377 40.26 192.517 39.12 194.637 39.12C195.057 39.12 195.377 39.16 195.737 39.22V41.94C194.977 41.7 194.457 41.68 193.977 41.68C192.577 41.68 190.597 42.42 190.597 44.88V50H187.837ZM197.955 47.04V41.4H195.755V39.4H197.955V36.12H200.715V39.4H203.595V41.4H200.715V46.24C200.715 47.46 200.775 48.12 201.715 48.12C202.395 48.12 203.035 48.1 203.695 48.08V50.08C202.955 50.18 202.415 50.24 201.575 50.24C198.215 50.24 197.955 49.04 197.955 47.04ZM205.319 50V39.4H208.079V50H205.319ZM205.319 37.72V35.48H208.079V37.72H205.319ZM222.315 43.12H219.435C219.235 42.02 218.075 41.12 216.495 41.12C213.935 41.12 212.815 42.86 212.815 44.7C212.815 46.54 213.815 48.28 216.195 48.28C218.335 48.28 218.915 47.44 219.495 45.94H222.375C221.735 50.34 217.235 50.4 216.495 50.4C211.755 50.4 209.935 47.62 209.935 44.7C209.935 41.28 212.395 39 216.495 39C218.095 39 221.735 39.54 222.315 43.12ZM224.167 50V35.48H226.927V50H224.167ZM241.783 45.4H231.783C231.843 46.58 232.643 48.4 235.383 48.4C237.203 48.4 238.003 47.76 238.543 46.88H241.543C240.943 48.06 239.503 50.4 235.463 50.4C230.683 50.4 228.903 47.62 228.903 44.8C228.903 41.26 231.523 39 235.283 39C239.983 39 241.783 41.9 241.783 45V45.4ZM231.783 43.64H238.903C238.563 41.52 236.683 40.88 235.323 40.88C234.043 40.88 232.243 41.48 231.783 43.64ZM85.6855 68.68H88.6855C88.7655 70.28 90.6055 70.52 91.6055 70.52C92.9855 70.52 94.4855 70.16 94.4855 69.16C94.4855 68.34 94.0255 68.06 91.0455 67.66C87.7655 67.22 86.0455 66.84 86.0455 64.42C86.0455 61.4 89.5655 61 91.3455 61C92.9855 61 96.9255 61.24 97.0855 64.64H94.2055C93.9855 63.06 92.1455 62.88 91.2055 62.88C89.6455 62.88 88.8055 63.54 88.8055 64.1C88.8055 64.96 89.0655 65.1 91.7255 65.48C95.2055 65.98 97.4855 66.32 97.4855 68.78C97.4855 71.48 94.9055 72.4 91.6255 72.4C89.3655 72.4 85.7855 71.92 85.6855 68.68ZM99.1942 68.48V61.4H101.954V67.44C101.954 69.06 102.334 70.28 104.694 70.28C105.914 70.28 107.914 69.48 107.914 67.22V61.4H110.674V72H107.914V70.52H107.874C106.974 71.66 105.574 72.4 103.694 72.4C101.414 72.4 99.1942 71.58 99.1942 68.48ZM112.905 72V61.4H115.665V63.46H115.705C116.445 62.26 117.585 61.12 119.705 61.12C120.125 61.12 120.445 61.16 120.805 61.22V63.94C120.045 63.7 119.525 63.68 119.045 63.68C117.645 63.68 115.665 64.42 115.665 66.88V72H112.905ZM129.274 72V57.48H132.034V72H129.274ZM146.89 67.4H136.89C136.95 68.58 137.75 70.4 140.49 70.4C142.31 70.4 143.11 69.76 143.65 68.88H146.65C146.05 70.06 144.61 72.4 140.57 72.4C135.79 72.4 134.01 69.62 134.01 66.8C134.01 63.26 136.63 61 140.39 61C145.09 61 146.89 63.9 146.89 67V67.4ZM136.89 65.64H144.01C143.67 63.52 141.79 62.88 140.43 62.88C139.15 62.88 137.35 63.48 136.89 65.64ZM156.655 72V63.4H154.475V61.4H156.655V60.04C156.655 58.86 156.955 57.32 159.835 57.32C161.035 57.32 161.675 57.36 162.315 57.4V59.4C162.015 59.36 161.415 59.32 160.895 59.32C159.635 59.32 159.415 59.62 159.415 60.58V61.4H162.315V63.4H159.415V72H156.655ZM163.298 72V61.4H166.058V72H163.298ZM163.298 59.72V57.48H166.058V59.72H163.298ZM168.454 72V57.48H171.214V72H168.454ZM181.77 72V65.68C181.77 64.58 181.63 63.24 179.17 63.24C178.21 63.24 176.29 63.78 176.29 66.1V72H173.53V61.4H176.29V63H176.33C177.23 61.86 178.63 61.12 180.51 61.12C181.75 61.12 183.51 61.34 184.25 63.08C184.93 62.1 186.33 61.12 188.55 61.12C190.25 61.12 192.77 61.72 192.77 64.96V72H190.01V65.68C190.01 64.58 189.87 63.24 187.41 63.24C186.45 63.24 184.53 63.78 184.53 66.1V72H181.77Z" fill="black"/>
</g>
<defs>
<filter id="filter0_dddd_2189_2550" x="0" y="0" width="265" height="108" filterUnits="userSpaceOnUse" color-interpolation-filters="sRGB">
<feFlood flood-opacity="0" result="BackgroundImageFix"/>
<feColorMatrix in="SourceAlpha" type="matrix" values="0 0 0 0 0 0 0 0 0 0 0 0 0 0 0 0 0 0 127 0" result="hardAlpha"/>
<feOffset dy="4"/>
<feGaussianBlur stdDeviation="2"/>
<feComposite in2="hardAlpha" operator="out"/>
<feColorMatrix type="matrix" values="0 0 0 0 0 0 0 0 0 0 0 0 0 0 0 0 0 0 0.25 0"/>
<feBlend mode="normal" in2="BackgroundImageFix" result="effect1_dropShadow_2189_2550"/>
<feColorMatrix in="SourceAlpha" type="matrix" values="0 0 0 0 0 0 0 0 0 0 0 0 0 0 0 0 0 0 127 0" result="hardAlpha"/>
<feOffset dy="4"/>
<feGaussianBlur stdDeviation="2"/>
<feComposite in2="hardAlpha" operator="out"/>
<feColorMatrix type="matrix" values="0 0 0 0 0 0 0 0 0 0 0 0 0 0 0 0 0 0 0.25 0"/>
<feBlend mode="normal" in2="effect1_dropShadow_2189_2550" result="effect2_dropShadow_2189_2550"/>
<feColorMatrix in="SourceAlpha" type="matrix" values="0 0 0 0 0 0 0 0 0 0 0 0 0 0 0 0 0 0 127 0" result="hardAlpha"/>
<feOffset dy="4"/>
<feGaussianBlur stdDeviation="2"/>
<feComposite in2="hardAlpha" operator="out"/>
<feColorMatrix type="matrix" values="0 0 0 0 0 0 0 0 0 0 0 0 0 0 0 0 0 0 0.25 0"/>
<feBlend mode="normal" in2="effect2_dropShadow_2189_2550" result="effect3_dropShadow_2189_2550"/>
<feColorMatrix in="SourceAlpha" type="matrix" values="0 0 0 0 0 0 0 0 0 0 0 0 0 0 0 0 0 0 127 0" result="hardAlpha"/>
<feOffset dy="4"/>
<feGaussianBlur stdDeviation="2"/>
<feComposite in2="hardAlpha" operator="out"/>
<feColorMatrix type="matrix" values="0 0 0 0 0 0 0 0 0 0 0 0 0 0 0 0 0 0 0.25 0"/>
<feBlend mode="normal" in2="effect3_dropShadow_2189_2550" result="effect4_dropShadow_2189_2550"/>
<feBlend mode="normal" in="SourceGraphic" in2="effect4_dropShadow_2189_2550" result="shape"/>
</filter>
<filter id="filter1_d_2189_2550" x="32.2634" y="35.1" width="213.52" height="45.3" filterUnits="userSpaceOnUse" color-interpolation-filters="sRGB">
<feFlood flood-opacity="0" result="BackgroundImageFix"/>
<feColorMatrix in="SourceAlpha" type="matrix" values="0 0 0 0 0 0 0 0 0 0 0 0 0 0 0 0 0 0 127 0" result="hardAlpha"/>
<feOffset dy="4"/>
<feGaussianBlur stdDeviation="2"/>
<feComposite in2="hardAlpha" operator="out"/>
<feColorMatrix type="matrix" values="0 0 0 0 0 0 0 0 0 0 0 0 0 0 0 0 0 0 0.25 0"/>
<feBlend mode="normal" in2="BackgroundImageFix" result="effect1_dropShadow_2189_2550"/>
<feBlend mode="normal" in="SourceGraphic" in2="effect1_dropShadow_2189_2550" result="shape"/>
</filter>
</defs>
</svg>
