<svg width="180" height="75" viewBox="0 0 180 75" fill="none" xmlns="http://www.w3.org/2000/svg">
<g filter="url(#filter0_dddd_2157_2297)">
<path d="M4 20.9375L176 0L167.112 67L21.7751 57.5781L4 20.9375Z" fill="#FD5B5B"/>
</g>
<g filter="url(#filter1_d_2157_2297)">
<path d="M61.7071 34V22.576H68.9391C71.8511 22.576 72.7951 23.904 72.7951 25.68C72.7951 27.168 71.9791 28.096 70.9071 28.432V28.464C72.2671 28.752 72.5711 29.936 72.5711 31.552C72.5711 32.096 72.5871 33.376 73.0511 34H70.4591C70.2831 33.68 70.1711 33.104 70.1711 32.272C70.1711 30.64 69.9471 29.488 68.1871 29.488H64.1071V34H61.7071ZM64.1071 27.696H68.2511C69.5791 27.696 70.2991 27.296 70.2991 26.016C70.2991 24.832 69.5151 24.368 68.2511 24.368H64.1071V27.696ZM84.5139 30.32H76.5139C76.5619 31.264 77.2019 32.72 79.3939 32.72C80.8499 32.72 81.4899 32.208 81.9219 31.504H84.3219C83.8419 32.448 82.6899 34.32 79.4579 34.32C75.6339 34.32 74.2099 32.096 74.2099 29.84C74.2099 27.008 76.3059 25.2 79.3139 25.2C83.0739 25.2 84.5139 27.52 84.5139 30V30.32ZM76.5139 28.912H82.2099C81.9379 27.216 80.4339 26.704 79.3459 26.704C78.3219 26.704 76.8819 27.184 76.5139 28.912ZM86.7168 31.632V27.12H84.9568V25.52H86.7168V22.896H88.9248V25.52H91.2288V27.12H88.9248V30.992C88.9248 31.968 88.9728 32.496 89.7248 32.496C90.2688 32.496 90.7808 32.48 91.3088 32.464V34.064C90.7168 34.144 90.2848 34.192 89.6128 34.192C86.9248 34.192 86.7168 33.232 86.7168 31.632ZM94.4804 29.76C94.4804 31.232 95.2804 32.624 97.4244 32.624C99.5684 32.624 100.368 31.232 100.368 29.76C100.368 28.288 99.5684 26.896 97.4244 26.896C95.2804 26.896 94.4804 28.288 94.4804 29.76ZM92.1764 29.76C92.1764 27.424 93.6324 25.2 97.4244 25.2C101.216 25.2 102.672 27.424 102.672 29.76C102.672 32.096 101.216 34.32 97.4244 34.32C93.6324 34.32 92.1764 32.096 92.1764 29.76ZM104.091 31.184V25.52H106.299V30.352C106.299 31.648 106.603 32.624 108.491 32.624C109.467 32.624 111.067 31.984 111.067 30.176V25.52H113.275V34H111.067V32.816H111.035C110.315 33.728 109.195 34.32 107.691 34.32C105.867 34.32 104.091 33.664 104.091 31.184ZM115.06 34V25.52H117.268V27.168H117.3C117.892 26.208 118.804 25.296 120.5 25.296C120.836 25.296 121.092 25.328 121.38 25.376V27.552C120.772 27.36 120.356 27.344 119.972 27.344C118.852 27.344 117.268 27.936 117.268 29.904V34H115.06ZM137.195 28.048V32.064C137.195 32.528 137.531 32.544 137.675 32.544C137.883 32.544 138.219 32.528 138.395 32.496V34.048C137.963 34.128 137.579 34.24 136.827 34.24C135.387 34.24 135.227 33.472 135.163 33.152C134.731 33.568 133.659 34.32 131.179 34.32C128.971 34.32 127.723 33.328 127.723 31.664C127.723 29.328 130.123 29.12 131.531 28.992C134.699 28.688 135.035 28.576 135.035 27.92C135.035 26.944 133.915 26.704 132.635 26.704C131.179 26.704 130.395 27.168 130.315 28.112H128.155C128.475 25.888 130.123 25.2 132.635 25.2C137.067 25.2 137.195 26.944 137.195 28.048ZM134.987 30.592V29.776C134.347 30.048 133.659 30.128 132.091 30.304C130.427 30.496 130.027 30.864 130.027 31.584C130.027 32.704 131.051 32.912 131.803 32.912C132.987 32.912 134.987 32.464 134.987 30.592ZM132.747 22.08L134.171 24.352H132.267L130.027 22.08H132.747ZM63.6163 52V40.384H65.8243V52H63.6163ZM68.3493 42.848V40.576H70.8453V42.304C70.8453 43.984 70.1573 45.28 68.3493 45.52V44.576C69.3253 44.256 69.4693 43.824 69.5333 42.848H68.3493ZM82.4062 46.048V50.064C82.4062 50.528 82.7423 50.544 82.8863 50.544C83.0943 50.544 83.4303 50.528 83.6063 50.496V52.048C83.1743 52.128 82.7903 52.24 82.0383 52.24C80.5983 52.24 80.4383 51.472 80.3743 51.152C79.9423 51.568 78.8703 52.32 76.3903 52.32C74.1823 52.32 72.9342 51.328 72.9342 49.664C72.9342 47.328 75.3343 47.12 76.7423 46.992C79.9103 46.688 80.2463 46.576 80.2463 45.92C80.2463 44.944 79.1263 44.704 77.8463 44.704C76.3903 44.704 75.6063 45.168 75.5263 46.112H73.3663C73.6863 43.888 75.3343 43.2 77.8463 43.2C82.2783 43.2 82.4062 44.944 82.4062 46.048ZM80.1983 48.592V47.776C79.5583 48.048 78.8703 48.128 77.3023 48.304C75.6383 48.496 75.2383 48.864 75.2383 49.584C75.2383 50.704 76.2623 50.912 77.0143 50.912C78.1983 50.912 80.1983 50.464 80.1983 48.592ZM94.1039 46.496H91.7999C91.6399 45.616 90.7119 44.896 89.4479 44.896C87.3999 44.896 86.5039 46.288 86.5039 47.76C86.5039 49.232 87.3039 50.624 89.2079 50.624C90.9199 50.624 91.3839 49.952 91.8479 48.752H94.1519C93.6399 52.272 90.0399 52.32 89.4479 52.32C85.6559 52.32 84.1999 50.096 84.1999 47.76C84.1999 45.024 86.1679 43.2 89.4479 43.2C90.7279 43.2 93.6399 43.632 94.1039 46.496ZM105.057 46.496H102.753C102.593 45.616 101.665 44.896 100.401 44.896C98.353 44.896 97.457 46.288 97.457 47.76C97.457 49.232 98.257 50.624 100.161 50.624C101.873 50.624 102.337 49.952 102.801 48.752H105.105C104.593 52.272 100.993 52.32 100.401 52.32C96.609 52.32 95.153 50.096 95.153 47.76C95.153 45.024 97.121 43.2 100.401 43.2C101.681 43.2 104.593 43.632 105.057 46.496ZM106.474 49.184V43.52H108.682V48.352C108.682 49.648 108.986 50.624 110.874 50.624C111.85 50.624 113.45 49.984 113.45 48.176V43.52H115.658V52H113.45V50.816H113.418C112.698 51.728 111.578 52.32 110.074 52.32C108.25 52.32 106.474 51.664 106.474 49.184ZM127.475 48.32H119.475C119.523 49.264 120.163 50.72 122.355 50.72C123.811 50.72 124.451 50.208 124.883 49.504H127.283C126.803 50.448 125.651 52.32 122.419 52.32C118.595 52.32 117.171 50.096 117.171 47.84C117.171 45.008 119.267 43.2 122.275 43.2C126.035 43.2 127.475 45.52 127.475 48V48.32ZM119.475 46.912H125.171C124.899 45.216 123.395 44.704 122.307 44.704C121.283 44.704 119.843 45.184 119.475 46.912ZM129.054 52V43.52H131.262V52H129.054ZM129.054 42.176V40.384H131.262V42.176H129.054ZM133.179 52V40.384H135.387V52H133.179Z" fill="black"/>
</g>
<defs>
<filter id="filter0_dddd_2157_2297" x="0" y="0" width="180" height="75" filterUnits="userSpaceOnUse" color-interpolation-filters="sRGB">
<feFlood flood-opacity="0" result="BackgroundImageFix"/>
<feColorMatrix in="SourceAlpha" type="matrix" values="0 0 0 0 0 0 0 0 0 0 0 0 0 0 0 0 0 0 127 0" result="hardAlpha"/>
<feOffset dy="4"/>
<feGaussianBlur stdDeviation="2"/>
<feComposite in2="hardAlpha" operator="out"/>
<feColorMatrix type="matrix" values="0 0 0 0 0 0 0 0 0 0 0 0 0 0 0 0 0 0 0.25 0"/>
<feBlend mode="normal" in2="BackgroundImageFix" result="effect1_dropShadow_2157_2297"/>
<feColorMatrix in="SourceAlpha" type="matrix" values="0 0 0 0 0 0 0 0 0 0 0 0 0 0 0 0 0 0 127 0" result="hardAlpha"/>
<feOffset dy="4"/>
<feGaussianBlur stdDeviation="2"/>
<feComposite in2="hardAlpha" operator="out"/>
<feColorMatrix type="matrix" values="0 0 0 0 0 0 0 0 0 0 0 0 0 0 0 0 0 0 0.25 0"/>
<feBlend mode="normal" in2="effect1_dropShadow_2157_2297" result="effect2_dropShadow_2157_2297"/>
<feColorMatrix in="SourceAlpha" type="matrix" values="0 0 0 0 0 0 0 0 0 0 0 0 0 0 0 0 0 0 127 0" result="hardAlpha"/>
<feOffset dy="4"/>
<feGaussianBlur stdDeviation="2"/>
<feComposite in2="hardAlpha" operator="out"/>
<feColorMatrix type="matrix" values="0 0 0 0 0 0 0 0 0 0 0 0 0 0 0 0 0 0 0.25 0"/>
<feBlend mode="normal" in2="effect2_dropShadow_2157_2297" result="effect3_dropShadow_2157_2297"/>
<feColorMatrix in="SourceAlpha" type="matrix" values="0 0 0 0 0 0 0 0 0 0 0 0 0 0 0 0 0 0 127 0" result="hardAlpha"/>
<feOffset dy="4"/>
<feGaussianBlur stdDeviation="2"/>
<feComposite in2="hardAlpha" operator="out"/>
<feColorMatrix type="matrix" values="0 0 0 0 0 0 0 0 0 0 0 0 0 0 0 0 0 0 0.25 0"/>
<feBlend mode="normal" in2="effect3_dropShadow_2157_2297" result="effect4_dropShadow_2157_2297"/>
<feBlend mode="normal" in="SourceGraphic" in2="effect4_dropShadow_2157_2297" result="shape"/>
</filter>
<filter id="filter1_d_2157_2297" x="57.707" y="22.08" width="84.6882" height="38.24" filterUnits="userSpaceOnUse" color-interpolation-filters="sRGB">
<feFlood flood-opacity="0" result="BackgroundImageFix"/>
<feColorMatrix in="SourceAlpha" type="matrix" values="0 0 0 0 0 0 0 0 0 0 0 0 0 0 0 0 0 0 127 0" result="hardAlpha"/>
<feOffset dy="4"/>
<feGaussianBlur stdDeviation="2"/>
<feComposite in2="hardAlpha" operator="out"/>
<feColorMatrix type="matrix" values="0 0 0 0 0 0 0 0 0 0 0 0 0 0 0 0 0 0 0.25 0"/>
<feBlend mode="normal" in2="BackgroundImageFix" result="effect1_dropShadow_2157_2297"/>
<feBlend mode="normal" in="SourceGraphic" in2="effect1_dropShadow_2157_2297" result="shape"/>
</filter>
</defs>
</svg>
