<svg width="136" height="74" viewBox="0 0 136 74" fill="none" xmlns="http://www.w3.org/2000/svg">
<g filter="url(#filter0_dddd_2139_2278)">
<path d="M27.6433 0H116.51L132 66L4 48.2927L27.6433 0Z" fill="#FF3F3F"/>
</g>
<g filter="url(#filter1_d_2139_2278)">
<path d="M50.7852 25V13.576H60.2892V15.368H53.1852V18.248H59.9052V20.04H53.1852V25H50.7852ZM61.5303 25V16.52H63.7383V25H61.5303ZM61.5303 15.176V13.384H63.7383V15.176H61.5303ZM65.6553 25V13.384H67.8633V25H65.6553ZM76.3083 25V19.944C76.3083 19.064 76.1963 17.992 74.2283 17.992C73.4603 17.992 71.9243 18.424 71.9243 20.28V25H69.7163V16.52H71.9243V17.8H71.9563C72.6763 16.888 73.7963 16.296 75.3003 16.296C76.2923 16.296 77.7003 16.472 78.2923 17.864C78.8363 17.08 79.9563 16.296 81.7323 16.296C83.0923 16.296 85.1083 16.776 85.1083 19.368V25H82.9003V19.944C82.9003 19.064 82.7883 17.992 80.8203 17.992C80.0523 17.992 78.5163 18.424 78.5163 20.28V25H76.3083ZM86.4718 22.344H88.8718C88.9358 23.624 90.4078 23.816 91.2078 23.816C92.3118 23.816 93.5118 23.528 93.5118 22.728C93.5118 22.072 93.1438 21.848 90.7598 21.528C88.1358 21.176 86.7598 20.872 86.7598 18.936C86.7598 16.52 89.5758 16.2 90.9998 16.2C92.3118 16.2 95.4638 16.392 95.5918 19.112H93.2878C93.1118 17.848 91.6398 17.704 90.8878 17.704C89.6398 17.704 88.9678 18.232 88.9678 18.68C88.9678 19.368 89.1758 19.48 91.3038 19.784C94.0878 20.184 95.9118 20.456 95.9118 22.424C95.9118 24.584 93.8478 25.32 91.2238 25.32C89.4158 25.32 86.5518 24.936 86.4718 22.344ZM42.7188 37.048V41.064C42.7188 41.528 43.0548 41.544 43.1988 41.544C43.4068 41.544 43.7428 41.528 43.9188 41.496V43.048C43.4868 43.128 43.1028 43.24 42.3508 43.24C40.9108 43.24 40.7508 42.472 40.6868 42.152C40.2548 42.568 39.1828 43.32 36.7028 43.32C34.4948 43.32 33.2467 42.328 33.2467 40.664C33.2467 38.328 35.6468 38.12 37.0548 37.992C40.2228 37.688 40.5588 37.576 40.5588 36.92C40.5588 35.944 39.4388 35.704 38.1588 35.704C36.7028 35.704 35.9188 36.168 35.8388 37.112H33.6788C33.9988 34.888 35.6468 34.2 38.1588 34.2C42.5908 34.2 42.7188 35.944 42.7188 37.048ZM40.5108 39.592V38.776C39.8708 39.048 39.1828 39.128 37.6148 39.304C35.9508 39.496 35.5508 39.864 35.5508 40.584C35.5508 41.704 36.5748 41.912 37.3268 41.912C38.5108 41.912 40.5108 41.464 40.5108 39.592ZM44.4484 40.344H46.8484C46.9124 41.624 48.3844 41.816 49.1844 41.816C50.2884 41.816 51.4884 41.528 51.4884 40.728C51.4884 40.072 51.1204 39.848 48.7364 39.528C46.1124 39.176 44.7364 38.872 44.7364 36.936C44.7364 34.52 47.5524 34.2 48.9764 34.2C50.2884 34.2 53.4404 34.392 53.5684 37.112H51.2644C51.0884 35.848 49.6164 35.704 48.8644 35.704C47.6164 35.704 46.9444 36.232 46.9444 36.68C46.9444 37.368 47.1524 37.48 49.2804 37.784C52.0644 38.184 53.8884 38.456 53.8884 40.424C53.8884 42.584 51.8244 43.32 49.2004 43.32C47.3924 43.32 44.5284 42.936 44.4484 40.344ZM54.8234 40.344H57.2234C57.2874 41.624 58.7594 41.816 59.5594 41.816C60.6634 41.816 61.8634 41.528 61.8634 40.728C61.8634 40.072 61.4954 39.848 59.1114 39.528C56.4874 39.176 55.1114 38.872 55.1114 36.936C55.1114 34.52 57.9274 34.2 59.3514 34.2C60.6634 34.2 63.8154 34.392 63.9434 37.112H61.6394C61.4634 35.848 59.9914 35.704 59.2394 35.704C57.9914 35.704 57.3194 36.232 57.3194 36.68C57.3194 37.368 57.5274 37.48 59.6554 37.784C62.4394 38.184 64.2634 38.456 64.2634 40.424C64.2634 42.584 62.1994 43.32 59.5754 43.32C57.7674 43.32 54.9034 42.936 54.8234 40.344ZM67.5664 38.76C67.5664 40.232 68.3664 41.624 70.5104 41.624C72.6544 41.624 73.4544 40.232 73.4544 38.76C73.4544 37.288 72.6544 35.896 70.5104 35.896C68.3664 35.896 67.5664 37.288 67.5664 38.76ZM65.2624 38.76C65.2624 36.424 66.7184 34.2 70.5104 34.2C74.3024 34.2 75.7584 36.424 75.7584 38.76C75.7584 41.096 74.3024 43.32 70.5104 43.32C66.7184 43.32 65.2624 41.096 65.2624 38.76ZM86.7133 37.496H84.4093C84.2493 36.616 83.3213 35.896 82.0573 35.896C80.0093 35.896 79.1133 37.288 79.1133 38.76C79.1133 40.232 79.9133 41.624 81.8173 41.624C83.5293 41.624 83.9933 40.952 84.4573 39.752H86.7613C86.2493 43.272 82.6493 43.32 82.0573 43.32C78.2653 43.32 76.8092 41.096 76.8092 38.76C76.8092 36.024 78.7773 34.2 82.0573 34.2C83.3373 34.2 86.2493 34.632 86.7133 37.496ZM88.1944 43V34.52H90.4024V43H88.1944ZM88.1944 33.176V31.384H90.4024V33.176H88.1944ZM102.287 39.32H94.2874C94.3354 40.264 94.9754 41.72 97.1674 41.72C98.6234 41.72 99.2634 41.208 99.6954 40.504H102.095C101.615 41.448 100.463 43.32 97.2314 43.32C93.4074 43.32 91.9834 41.096 91.9834 38.84C91.9834 36.008 94.0794 34.2 97.0874 34.2C100.847 34.2 102.287 36.52 102.287 39V39.32ZM94.2874 37.912H99.9834C99.7114 36.216 98.2074 35.704 97.1194 35.704C96.0954 35.704 94.6554 36.184 94.2874 37.912ZM95.8074 33.352L97.2314 31.08H99.9514L97.7114 33.352H95.8074ZM103.37 40.344H105.77C105.834 41.624 107.306 41.816 108.106 41.816C109.21 41.816 110.41 41.528 110.41 40.728C110.41 40.072 110.042 39.848 107.658 39.528C105.034 39.176 103.658 38.872 103.658 36.936C103.658 34.52 106.474 34.2 107.898 34.2C109.21 34.2 112.362 34.392 112.49 37.112H110.186C110.01 35.848 108.538 35.704 107.786 35.704C106.538 35.704 105.866 36.232 105.866 36.68C105.866 37.368 106.074 37.48 108.202 37.784C110.986 38.184 112.81 38.456 112.81 40.424C112.81 42.584 110.746 43.32 108.122 43.32C106.314 43.32 103.45 42.936 103.37 40.344Z" fill="black"/>
</g>
<defs>
<filter id="filter0_dddd_2139_2278" x="0" y="0" width="136" height="74" filterUnits="userSpaceOnUse" color-interpolation-filters="sRGB">
<feFlood flood-opacity="0" result="BackgroundImageFix"/>
<feColorMatrix in="SourceAlpha" type="matrix" values="0 0 0 0 0 0 0 0 0 0 0 0 0 0 0 0 0 0 127 0" result="hardAlpha"/>
<feOffset dy="4"/>
<feGaussianBlur stdDeviation="2"/>
<feComposite in2="hardAlpha" operator="out"/>
<feColorMatrix type="matrix" values="0 0 0 0 0 0 0 0 0 0 0 0 0 0 0 0 0 0 0.25 0"/>
<feBlend mode="normal" in2="BackgroundImageFix" result="effect1_dropShadow_2139_2278"/>
<feColorMatrix in="SourceAlpha" type="matrix" values="0 0 0 0 0 0 0 0 0 0 0 0 0 0 0 0 0 0 127 0" result="hardAlpha"/>
<feOffset dy="4"/>
<feGaussianBlur stdDeviation="2"/>
<feComposite in2="hardAlpha" operator="out"/>
<feColorMatrix type="matrix" values="0 0 0 0 0 0 0 0 0 0 0 0 0 0 0 0 0 0 0.25 0"/>
<feBlend mode="normal" in2="effect1_dropShadow_2139_2278" result="effect2_dropShadow_2139_2278"/>
<feColorMatrix in="SourceAlpha" type="matrix" values="0 0 0 0 0 0 0 0 0 0 0 0 0 0 0 0 0 0 127 0" result="hardAlpha"/>
<feOffset dy="4"/>
<feGaussianBlur stdDeviation="2"/>
<feComposite in2="hardAlpha" operator="out"/>
<feColorMatrix type="matrix" values="0 0 0 0 0 0 0 0 0 0 0 0 0 0 0 0 0 0 0.25 0"/>
<feBlend mode="normal" in2="effect2_dropShadow_2139_2278" result="effect3_dropShadow_2139_2278"/>
<feColorMatrix in="SourceAlpha" type="matrix" values="0 0 0 0 0 0 0 0 0 0 0 0 0 0 0 0 0 0 127 0" result="hardAlpha"/>
<feOffset dy="4"/>
<feGaussianBlur stdDeviation="2"/>
<feComposite in2="hardAlpha" operator="out"/>
<feColorMatrix type="matrix" values="0 0 0 0 0 0 0 0 0 0 0 0 0 0 0 0 0 0 0.25 0"/>
<feBlend mode="normal" in2="effect3_dropShadow_2139_2278" result="effect4_dropShadow_2139_2278"/>
<feBlend mode="normal" in="SourceGraphic" in2="effect4_dropShadow_2139_2278" result="shape"/>
</filter>
<filter id="filter1_d_2139_2278" x="29.2467" y="13.384" width="87.5636" height="37.936" filterUnits="userSpaceOnUse" color-interpolation-filters="sRGB">
<feFlood flood-opacity="0" result="BackgroundImageFix"/>
<feColorMatrix in="SourceAlpha" type="matrix" values="0 0 0 0 0 0 0 0 0 0 0 0 0 0 0 0 0 0 127 0" result="hardAlpha"/>
<feOffset dy="4"/>
<feGaussianBlur stdDeviation="2"/>
<feComposite in2="hardAlpha" operator="out"/>
<feColorMatrix type="matrix" values="0 0 0 0 0 0 0 0 0 0 0 0 0 0 0 0 0 0 0.25 0"/>
<feBlend mode="normal" in2="BackgroundImageFix" result="effect1_dropShadow_2139_2278"/>
<feBlend mode="normal" in="SourceGraphic" in2="effect1_dropShadow_2139_2278" result="shape"/>
</filter>
</defs>
</svg>
