<svg width="136" height="74" viewBox="0 0 136 74" fill="none" xmlns="http://www.w3.org/2000/svg">
<g filter="url(#filter0_dddd_2249_2278)">
<path d="M27.6433 0H116.51L132 66L4 48.2927L27.6433 0Z" fill="#FF3F3F"/>
</g>
<g filter="url(#filter1_d_2249_2278)">
<path d="M24.7436 24.665H28.4336L26.6036 20.15L24.7436 24.665ZM20.5286 29L25.2986 18.29H27.9686L32.7386 29H30.2336L29.1086 26.345H24.0686L22.9586 29H20.5286ZM33.0371 26.51H35.2871C35.3471 27.71 36.7271 27.89 37.4771 27.89C38.5121 27.89 39.6371 27.62 39.6371 26.87C39.6371 26.255 39.2921 26.045 37.0571 25.745C34.5971 25.415 33.3071 25.13 33.3071 23.315C33.3071 21.05 35.9471 20.75 37.2821 20.75C38.5121 20.75 41.4671 20.93 41.5871 23.48H39.4271C39.2621 22.295 37.8821 22.16 37.1771 22.16C36.0071 22.16 35.3771 22.655 35.3771 23.075C35.3771 23.72 35.5721 23.825 37.5671 24.11C40.1771 24.485 41.8871 24.74 41.8871 26.585C41.8871 28.61 39.9521 29.3 37.4921 29.3C35.7971 29.3 33.1121 28.94 33.0371 26.51ZM42.7636 26.51H45.0136C45.0736 27.71 46.4536 27.89 47.2036 27.89C48.2386 27.89 49.3636 27.62 49.3636 26.87C49.3636 26.255 49.0186 26.045 46.7836 25.745C44.3236 25.415 43.0336 25.13 43.0336 23.315C43.0336 21.05 45.6736 20.75 47.0086 20.75C48.2386 20.75 51.1936 20.93 51.3136 23.48H49.1536C48.9886 22.295 47.6086 22.16 46.9036 22.16C45.7336 22.16 45.1036 22.655 45.1036 23.075C45.1036 23.72 45.2986 23.825 47.2936 24.11C49.9036 24.485 51.6136 24.74 51.6136 26.585C51.6136 28.61 49.6786 29.3 47.2186 29.3C45.5236 29.3 42.8386 28.94 42.7636 26.51ZM54.7102 25.025C54.7102 26.405 55.4602 27.71 57.4702 27.71C59.4802 27.71 60.2302 26.405 60.2302 25.025C60.2302 23.645 59.4802 22.34 57.4702 22.34C55.4602 22.34 54.7102 23.645 54.7102 25.025ZM52.5502 25.025C52.5502 22.835 53.9152 20.75 57.4702 20.75C61.0252 20.75 62.3902 22.835 62.3902 25.025C62.3902 27.215 61.0252 29.3 57.4702 29.3C53.9152 29.3 52.5502 27.215 52.5502 25.025ZM72.6604 23.84H70.5004C70.3504 23.015 69.4804 22.34 68.2954 22.34C66.3754 22.34 65.5354 23.645 65.5354 25.025C65.5354 26.405 66.2854 27.71 68.0704 27.71C69.6754 27.71 70.1104 27.08 70.5454 25.955H72.7054C72.2254 29.255 68.8504 29.3 68.2954 29.3C64.7404 29.3 63.3754 27.215 63.3754 25.025C63.3754 22.46 65.2204 20.75 68.2954 20.75C69.4954 20.75 72.2254 21.155 72.6604 23.84ZM74.0489 29V21.05H76.1189V29H74.0489ZM74.0489 19.79V18.11H76.1189V19.79H74.0489ZM86.3911 23.42V27.185C86.3911 27.62 86.7061 27.635 86.8411 27.635C87.0361 27.635 87.3511 27.62 87.5161 27.59V29.045C87.1111 29.12 86.7511 29.225 86.0461 29.225C84.6961 29.225 84.5461 28.505 84.4861 28.205C84.0811 28.595 83.0761 29.3 80.7511 29.3C78.6811 29.3 77.5111 28.37 77.5111 26.81C77.5111 24.62 79.7611 24.425 81.0811 24.305C84.0511 24.02 84.3661 23.915 84.3661 23.3C84.3661 22.385 83.3161 22.16 82.1161 22.16C80.7511 22.16 80.0161 22.595 79.9411 23.48H77.9161C78.2161 21.395 79.7611 20.75 82.1161 20.75C86.2711 20.75 86.3911 22.385 86.3911 23.42ZM84.3211 25.805V25.04C83.7211 25.295 83.0761 25.37 81.6061 25.535C80.0461 25.715 79.6711 26.06 79.6711 26.735C79.6711 27.785 80.6311 27.98 81.3361 27.98C82.4461 27.98 84.3211 27.56 84.3211 25.805ZM89.0626 26.78V22.55H87.4126V21.05H89.0626V18.59H91.1326V21.05H93.2926V22.55H91.1326V26.18C91.1326 27.095 91.1776 27.59 91.8826 27.59C92.3926 27.59 92.8726 27.575 93.3676 27.56V29.06C92.8126 29.135 92.4076 29.18 91.7776 29.18C89.2576 29.18 89.0626 28.28 89.0626 26.78ZM103.931 25.55H96.431C96.476 26.435 97.076 27.8 99.131 27.8C100.496 27.8 101.096 27.32 101.501 26.66H103.751C103.301 27.545 102.221 29.3 99.191 29.3C95.606 29.3 94.271 27.215 94.271 25.1C94.271 22.445 96.236 20.75 99.056 20.75C102.581 20.75 103.931 22.925 103.931 25.25V25.55ZM96.431 24.23H101.771C101.516 22.64 100.106 22.16 99.086 22.16C98.126 22.16 96.776 22.61 96.431 24.23ZM107.166 25.055C107.166 26.405 107.901 27.71 109.851 27.71C111.786 27.71 112.521 26.405 112.521 25.055C112.521 23.735 111.786 22.43 109.851 22.43C107.901 22.43 107.166 23.735 107.166 25.055ZM114.501 18.11V29H112.431V27.905H112.401C112.251 28.385 111.006 29.3 109.356 29.3C106.326 29.3 105.006 27.095 105.006 25.055C105.006 23.045 106.326 20.84 109.356 20.84C110.601 20.84 111.786 21.23 112.401 22.19H112.431V18.11H114.501ZM49.907 46V39.55H48.272V38.05H49.907V37.03C49.907 36.145 50.132 34.99 52.292 34.99C53.192 34.99 53.672 35.02 54.152 35.05V36.55C53.927 36.52 53.477 36.49 53.087 36.49C52.142 36.49 51.977 36.715 51.977 37.435V38.05H54.152V39.55H51.977V46H49.907ZM54.8888 46V38.05H56.9588V46H54.8888ZM54.8888 36.79V35.11H56.9588V36.79H54.8888ZM58.756 46V35.11H60.826V46H58.756ZM68.7431 46V41.26C68.7431 40.435 68.6381 39.43 66.7931 39.43C66.0731 39.43 64.6331 39.835 64.6331 41.575V46H62.5631V38.05H64.6331V39.25H64.6631C65.3381 38.395 66.3881 37.84 67.7981 37.84C68.7281 37.84 70.0481 38.005 70.6031 39.31C71.1131 38.575 72.1631 37.84 73.8281 37.84C75.1031 37.84 76.9931 38.29 76.9931 40.72V46H74.9231V41.26C74.9231 40.435 74.8181 39.43 72.9731 39.43C72.2531 39.43 70.8131 39.835 70.8131 41.575V46H68.7431ZM78.2714 43.51H80.5214C80.5814 44.71 81.9614 44.89 82.7114 44.89C83.7464 44.89 84.8714 44.62 84.8714 43.87C84.8714 43.255 84.5264 43.045 82.2914 42.745C79.8314 42.415 78.5414 42.13 78.5414 40.315C78.5414 38.05 81.1814 37.75 82.5164 37.75C83.7464 37.75 86.7014 37.93 86.8214 40.48H84.6614C84.4964 39.295 83.1164 39.16 82.4114 39.16C81.2414 39.16 80.6114 39.655 80.6114 40.075C80.6114 40.72 80.8064 40.825 82.8014 41.11C85.4114 41.485 87.1214 41.74 87.1214 43.585C87.1214 45.61 85.1864 46.3 82.7264 46.3C81.0314 46.3 78.3464 45.94 78.2714 43.51Z" fill="black"/>
</g>
<defs>
<filter id="filter0_dddd_2249_2278" x="0" y="0" width="136" height="74" filterUnits="userSpaceOnUse" color-interpolation-filters="sRGB">
<feFlood flood-opacity="0" result="BackgroundImageFix"/>
<feColorMatrix in="SourceAlpha" type="matrix" values="0 0 0 0 0 0 0 0 0 0 0 0 0 0 0 0 0 0 127 0" result="hardAlpha"/>
<feOffset dy="4"/>
<feGaussianBlur stdDeviation="2"/>
<feComposite in2="hardAlpha" operator="out"/>
<feColorMatrix type="matrix" values="0 0 0 0 0 0 0 0 0 0 0 0 0 0 0 0 0 0 0.25 0"/>
<feBlend mode="normal" in2="BackgroundImageFix" result="effect1_dropShadow_2249_2278"/>
<feColorMatrix in="SourceAlpha" type="matrix" values="0 0 0 0 0 0 0 0 0 0 0 0 0 0 0 0 0 0 127 0" result="hardAlpha"/>
<feOffset dy="4"/>
<feGaussianBlur stdDeviation="2"/>
<feComposite in2="hardAlpha" operator="out"/>
<feColorMatrix type="matrix" values="0 0 0 0 0 0 0 0 0 0 0 0 0 0 0 0 0 0 0.25 0"/>
<feBlend mode="normal" in2="effect1_dropShadow_2249_2278" result="effect2_dropShadow_2249_2278"/>
<feColorMatrix in="SourceAlpha" type="matrix" values="0 0 0 0 0 0 0 0 0 0 0 0 0 0 0 0 0 0 127 0" result="hardAlpha"/>
<feOffset dy="4"/>
<feGaussianBlur stdDeviation="2"/>
<feComposite in2="hardAlpha" operator="out"/>
<feColorMatrix type="matrix" values="0 0 0 0 0 0 0 0 0 0 0 0 0 0 0 0 0 0 0.25 0"/>
<feBlend mode="normal" in2="effect2_dropShadow_2249_2278" result="effect3_dropShadow_2249_2278"/>
<feColorMatrix in="SourceAlpha" type="matrix" values="0 0 0 0 0 0 0 0 0 0 0 0 0 0 0 0 0 0 127 0" result="hardAlpha"/>
<feOffset dy="4"/>
<feGaussianBlur stdDeviation="2"/>
<feComposite in2="hardAlpha" operator="out"/>
<feColorMatrix type="matrix" values="0 0 0 0 0 0 0 0 0 0 0 0 0 0 0 0 0 0 0.25 0"/>
<feBlend mode="normal" in2="effect3_dropShadow_2249_2278" result="effect4_dropShadow_2249_2278"/>
<feBlend mode="normal" in="SourceGraphic" in2="effect4_dropShadow_2249_2278" result="shape"/>
</filter>
<filter id="filter1_d_2249_2278" x="16.5286" y="18.11" width="101.973" height="36.19" filterUnits="userSpaceOnUse" color-interpolation-filters="sRGB">
<feFlood flood-opacity="0" result="BackgroundImageFix"/>
<feColorMatrix in="SourceAlpha" type="matrix" values="0 0 0 0 0 0 0 0 0 0 0 0 0 0 0 0 0 0 127 0" result="hardAlpha"/>
<feOffset dy="4"/>
<feGaussianBlur stdDeviation="2"/>
<feComposite in2="hardAlpha" operator="out"/>
<feColorMatrix type="matrix" values="0 0 0 0 0 0 0 0 0 0 0 0 0 0 0 0 0 0 0.25 0"/>
<feBlend mode="normal" in2="BackgroundImageFix" result="effect1_dropShadow_2249_2278"/>
<feBlend mode="normal" in="SourceGraphic" in2="effect1_dropShadow_2249_2278" result="shape"/>
</filter>
</defs>
</svg>
