<svg width="180" height="75" viewBox="0 0 180 75" fill="none" xmlns="http://www.w3.org/2000/svg">
<g filter="url(#filter0_dddd_2139_2281)">
<path d="M4 20.9375L176 0L167.112 67L21.7751 57.5781L4 20.9375Z" fill="#F77F7F"/>
</g>
<g filter="url(#filter1_d_2139_2281)">
<path d="M25.4493 33V21.576H27.8493V31.112H34.7933V33H25.4493ZM35.9131 33V24.52H38.1211V33H35.9131ZM35.9131 23.176V21.384H38.1211V23.176H35.9131ZM39.9741 33V24.52H42.1821V26.168H42.2141C42.8061 25.208 43.7181 24.296 45.4141 24.296C45.7501 24.296 46.0061 24.328 46.2941 24.376V26.552C45.6861 26.36 45.2701 26.344 44.8861 26.344C43.7661 26.344 42.1821 26.936 42.1821 28.904V33H39.9741ZM57.4124 29.32H49.4124C49.4604 30.264 50.1004 31.72 52.2924 31.72C53.7484 31.72 54.3884 31.208 54.8204 30.504H57.2204C56.7404 31.448 55.5884 33.32 52.3564 33.32C48.5324 33.32 47.1084 31.096 47.1084 28.84C47.1084 26.008 49.2044 24.2 52.2124 24.2C55.9724 24.2 57.4124 26.52 57.4124 29V29.32ZM49.4124 27.912H55.1084C54.8364 26.216 53.3324 25.704 52.2444 25.704C51.2204 25.704 49.7804 26.184 49.4124 27.912ZM64.6163 33V21.384H66.8243V33H64.6163ZM69.3493 23.848V21.576H71.8453V23.304C71.8453 24.984 71.1573 26.28 69.3493 26.52V25.576C70.3253 25.256 70.4693 24.824 70.5333 23.848H69.3493ZM83.4062 27.048V31.064C83.4062 31.528 83.7423 31.544 83.8863 31.544C84.0943 31.544 84.4303 31.528 84.6063 31.496V33.048C84.1743 33.128 83.7903 33.24 83.0383 33.24C81.5983 33.24 81.4383 32.472 81.3743 32.152C80.9423 32.568 79.8703 33.32 77.3903 33.32C75.1823 33.32 73.9342 32.328 73.9342 30.664C73.9342 28.328 76.3343 28.12 77.7423 27.992C80.9103 27.688 81.2463 27.576 81.2463 26.92C81.2463 25.944 80.1263 25.704 78.8463 25.704C77.3903 25.704 76.6063 26.168 76.5263 27.112H74.3663C74.6863 24.888 76.3343 24.2 78.8463 24.2C83.2783 24.2 83.4062 25.944 83.4062 27.048ZM81.1983 29.592V28.776C80.5583 29.048 79.8703 29.128 78.3023 29.304C76.6383 29.496 76.2383 29.864 76.2383 30.584C76.2383 31.704 77.2623 31.912 78.0143 31.912C79.1983 31.912 81.1983 31.464 81.1983 29.592ZM85.5679 33V24.52H87.7759V26.168H87.8079C88.3999 25.208 89.3119 24.296 91.0079 24.296C91.3439 24.296 91.5999 24.328 91.8879 24.376V26.552C91.2799 26.36 90.8639 26.344 90.4799 26.344C89.3599 26.344 87.7759 26.936 87.7759 28.904V33H85.5679ZM93.6621 30.632V26.12H91.9021V24.52H93.6621V21.896H95.8701V24.52H98.1741V26.12H95.8701V29.992C95.8701 30.968 95.9181 31.496 96.6701 31.496C97.2141 31.496 97.7261 31.48 98.2541 31.464V33.064C97.6621 33.144 97.2301 33.192 96.5581 33.192C93.8701 33.192 93.6621 32.232 93.6621 30.632ZM99.5538 33V24.52H101.762V33H99.5538ZM99.5538 23.176V21.384H101.762V23.176H99.5538ZM113.151 27.496H110.847C110.687 26.616 109.759 25.896 108.495 25.896C106.447 25.896 105.551 27.288 105.551 28.76C105.551 30.232 106.351 31.624 108.255 31.624C109.967 31.624 110.431 30.952 110.895 29.752H113.199C112.687 33.272 109.087 33.32 108.495 33.32C104.703 33.32 103.247 31.096 103.247 28.76C103.247 26.024 105.215 24.2 108.495 24.2C109.775 24.2 112.687 24.632 113.151 27.496ZM114.632 33V21.384H116.84V33H114.632ZM128.725 29.32H120.725C120.773 30.264 121.413 31.72 123.605 31.72C125.061 31.72 125.701 31.208 126.133 30.504H128.533C128.053 31.448 126.901 33.32 123.669 33.32C119.845 33.32 118.421 31.096 118.421 28.84C118.421 26.008 120.517 24.2 123.525 24.2C127.285 24.2 128.725 26.52 128.725 29V29.32ZM120.725 27.912H126.421C126.149 26.216 124.645 25.704 123.557 25.704C122.533 25.704 121.093 26.184 120.725 27.912ZM135.433 30.344H137.833C137.897 31.624 139.369 31.816 140.169 31.816C141.273 31.816 142.473 31.528 142.473 30.728C142.473 30.072 142.105 29.848 139.721 29.528C137.097 29.176 135.721 28.872 135.721 26.936C135.721 24.52 138.537 24.2 139.961 24.2C141.273 24.2 144.425 24.392 144.553 27.112H142.249C142.073 25.848 140.601 25.704 139.849 25.704C138.601 25.704 137.929 26.232 137.929 26.68C137.929 27.368 138.137 27.48 140.265 27.784C143.049 28.184 144.873 28.456 144.873 30.424C144.873 32.584 142.809 33.32 140.185 33.32C138.377 33.32 135.513 32.936 135.433 30.344ZM146.24 30.184V24.52H148.448V29.352C148.448 30.648 148.752 31.624 150.64 31.624C151.616 31.624 153.216 30.984 153.216 29.176V24.52H155.424V33H153.216V31.816H153.184C152.464 32.728 151.344 33.32 149.84 33.32C148.016 33.32 146.24 32.664 146.24 30.184ZM157.209 33V24.52H159.417V26.168H159.449C160.041 25.208 160.953 24.296 162.649 24.296C162.985 24.296 163.241 24.328 163.529 24.376V26.552C162.921 26.36 162.505 26.344 162.121 26.344C161.001 26.344 159.417 26.936 159.417 28.904V33H157.209ZM36.0381 51V39.384H38.2461V51H36.0381ZM50.1311 47.32H42.1311C42.1791 48.264 42.8191 49.72 45.0111 49.72C46.4671 49.72 47.1071 49.208 47.5391 48.504H49.9391C49.4591 49.448 48.3071 51.32 45.0751 51.32C41.2511 51.32 39.8271 49.096 39.8271 46.84C39.8271 44.008 41.9231 42.2 44.9311 42.2C48.6911 42.2 50.1311 44.52 50.1311 47V47.32ZM42.1311 45.912H47.8271C47.5551 44.216 46.0511 43.704 44.9631 43.704C43.9391 43.704 42.4991 44.184 42.1311 45.912ZM57.271 51V42.52H59.479V44.168H59.511C60.103 43.208 61.015 42.296 62.711 42.296C63.047 42.296 63.303 42.328 63.591 42.376V44.552C62.983 44.36 62.567 44.344 62.183 44.344C61.063 44.344 59.479 44.936 59.479 46.904V51H57.271ZM74.7093 47.32H66.7093C66.7573 48.264 67.3973 49.72 69.5893 49.72C71.0453 49.72 71.6853 49.208 72.1173 48.504H74.5173C74.0373 49.448 72.8853 51.32 69.6533 51.32C65.8293 51.32 64.4053 49.096 64.4053 46.84C64.4053 44.008 66.5013 42.2 69.5093 42.2C73.2693 42.2 74.7093 44.52 74.7093 47V47.32ZM66.7093 45.912H72.4053C72.1333 44.216 70.6293 43.704 69.5413 43.704C68.5173 43.704 67.0773 44.184 66.7093 45.912ZM68.2293 41.352L69.6533 39.08H72.3733L70.1333 41.352H68.2293ZM85.3281 45.048V49.064C85.3281 49.528 85.6641 49.544 85.8081 49.544C86.0161 49.544 86.3521 49.528 86.5281 49.496V51.048C86.0961 51.128 85.7121 51.24 84.9601 51.24C83.5201 51.24 83.3601 50.472 83.2961 50.152C82.8641 50.568 81.7921 51.32 79.3121 51.32C77.1041 51.32 75.8561 50.328 75.8561 48.664C75.8561 46.328 78.2561 46.12 79.6641 45.992C82.8321 45.688 83.1681 45.576 83.1681 44.92C83.1681 43.944 82.0481 43.704 80.7681 43.704C79.3121 43.704 78.5281 44.168 78.4481 45.112H76.2881C76.6081 42.888 78.2561 42.2 80.7681 42.2C85.2001 42.2 85.3281 43.944 85.3281 45.048ZM83.1201 47.592V46.776C82.4801 47.048 81.7921 47.128 80.2241 47.304C78.5601 47.496 78.1601 47.864 78.1601 48.584C78.1601 49.704 79.1841 49.912 79.9361 49.912C81.1201 49.912 83.1201 49.464 83.1201 47.592ZM87.5538 51V39.384H89.7618V51H87.5538ZM91.6788 51V42.52H93.8868V51H91.6788ZM91.6788 41.176V39.384H93.8868V41.176H91.6788ZM95.3078 48.344H97.7078C97.7718 49.624 99.2438 49.816 100.044 49.816C101.148 49.816 102.348 49.528 102.348 48.728C102.348 48.072 101.98 47.848 99.5958 47.528C96.9718 47.176 95.5958 46.872 95.5958 44.936C95.5958 42.52 98.4118 42.2 99.8358 42.2C101.148 42.2 104.3 42.392 104.428 45.112H102.124C101.948 43.848 100.476 43.704 99.7238 43.704C98.4758 43.704 97.8038 44.232 97.8038 44.68C97.8038 45.368 98.0118 45.48 100.14 45.784C102.924 46.184 104.748 46.456 104.748 48.424C104.748 50.584 102.684 51.32 100.06 51.32C98.2518 51.32 95.3878 50.936 95.3078 48.344ZM115.219 45.048V49.064C115.219 49.528 115.555 49.544 115.699 49.544C115.907 49.544 116.243 49.528 116.419 49.496V51.048C115.987 51.128 115.603 51.24 114.851 51.24C113.411 51.24 113.251 50.472 113.187 50.152C112.755 50.568 111.683 51.32 109.203 51.32C106.995 51.32 105.747 50.328 105.747 48.664C105.747 46.328 108.147 46.12 109.555 45.992C112.723 45.688 113.059 45.576 113.059 44.92C113.059 43.944 111.939 43.704 110.659 43.704C109.203 43.704 108.419 44.168 108.339 45.112H106.179C106.499 42.888 108.147 42.2 110.659 42.2C115.091 42.2 115.219 43.944 115.219 45.048ZM113.011 47.592V46.776C112.371 47.048 111.683 47.128 110.115 47.304C108.451 47.496 108.051 47.864 108.051 48.584C108.051 49.704 109.075 49.912 109.827 49.912C111.011 49.912 113.011 49.464 113.011 47.592ZM118.068 48.632V44.12H116.308V42.52H118.068V39.896H120.276V42.52H122.58V44.12H120.276V47.992C120.276 48.968 120.324 49.496 121.076 49.496C121.62 49.496 122.132 49.48 122.66 49.464V51.064C122.068 51.144 121.636 51.192 120.964 51.192C118.276 51.192 118.068 50.232 118.068 48.632ZM133.928 47.32H125.928C125.976 48.264 126.616 49.72 128.808 49.72C130.264 49.72 130.904 49.208 131.336 48.504H133.736C133.256 49.448 132.104 51.32 128.872 51.32C125.048 51.32 123.624 49.096 123.624 46.84C123.624 44.008 125.72 42.2 128.728 42.2C132.488 42.2 133.928 44.52 133.928 47V47.32ZM125.928 45.912H131.624C131.352 44.216 129.848 43.704 128.76 43.704C127.736 43.704 126.296 44.184 125.928 45.912ZM135.443 48.184V42.52H137.651V47.352C137.651 48.648 137.955 49.624 139.843 49.624C140.819 49.624 142.419 48.984 142.419 47.176V42.52H144.627V51H142.419V49.816H142.387C141.667 50.728 140.547 51.32 139.043 51.32C137.219 51.32 135.443 50.664 135.443 48.184ZM146.412 51V42.52H148.62V44.168H148.652C149.244 43.208 150.156 42.296 151.852 42.296C152.188 42.296 152.444 42.328 152.732 42.376V44.552C152.124 44.36 151.708 44.344 151.324 44.344C150.204 44.344 148.62 44.936 148.62 46.904V51H146.412Z" fill="black"/>
</g>
<defs>
<filter id="filter0_dddd_2139_2281" x="0" y="0" width="180" height="75" filterUnits="userSpaceOnUse" color-interpolation-filters="sRGB">
<feFlood flood-opacity="0" result="BackgroundImageFix"/>
<feColorMatrix in="SourceAlpha" type="matrix" values="0 0 0 0 0 0 0 0 0 0 0 0 0 0 0 0 0 0 127 0" result="hardAlpha"/>
<feOffset dy="4"/>
<feGaussianBlur stdDeviation="2"/>
<feComposite in2="hardAlpha" operator="out"/>
<feColorMatrix type="matrix" values="0 0 0 0 0 0 0 0 0 0 0 0 0 0 0 0 0 0 0.25 0"/>
<feBlend mode="normal" in2="BackgroundImageFix" result="effect1_dropShadow_2139_2281"/>
<feColorMatrix in="SourceAlpha" type="matrix" values="0 0 0 0 0 0 0 0 0 0 0 0 0 0 0 0 0 0 127 0" result="hardAlpha"/>
<feOffset dy="4"/>
<feGaussianBlur stdDeviation="2"/>
<feComposite in2="hardAlpha" operator="out"/>
<feColorMatrix type="matrix" values="0 0 0 0 0 0 0 0 0 0 0 0 0 0 0 0 0 0 0.25 0"/>
<feBlend mode="normal" in2="effect1_dropShadow_2139_2281" result="effect2_dropShadow_2139_2281"/>
<feColorMatrix in="SourceAlpha" type="matrix" values="0 0 0 0 0 0 0 0 0 0 0 0 0 0 0 0 0 0 127 0" result="hardAlpha"/>
<feOffset dy="4"/>
<feGaussianBlur stdDeviation="2"/>
<feComposite in2="hardAlpha" operator="out"/>
<feColorMatrix type="matrix" values="0 0 0 0 0 0 0 0 0 0 0 0 0 0 0 0 0 0 0.25 0"/>
<feBlend mode="normal" in2="effect2_dropShadow_2139_2281" result="effect3_dropShadow_2139_2281"/>
<feColorMatrix in="SourceAlpha" type="matrix" values="0 0 0 0 0 0 0 0 0 0 0 0 0 0 0 0 0 0 127 0" result="hardAlpha"/>
<feOffset dy="4"/>
<feGaussianBlur stdDeviation="2"/>
<feComposite in2="hardAlpha" operator="out"/>
<feColorMatrix type="matrix" values="0 0 0 0 0 0 0 0 0 0 0 0 0 0 0 0 0 0 0.25 0"/>
<feBlend mode="normal" in2="effect3_dropShadow_2139_2281" result="effect4_dropShadow_2139_2281"/>
<feBlend mode="normal" in="SourceGraphic" in2="effect4_dropShadow_2139_2281" result="shape"/>
</filter>
<filter id="filter1_d_2139_2281" x="21.4492" y="21.384" width="146.079" height="37.936" filterUnits="userSpaceOnUse" color-interpolation-filters="sRGB">
<feFlood flood-opacity="0" result="BackgroundImageFix"/>
<feColorMatrix in="SourceAlpha" type="matrix" values="0 0 0 0 0 0 0 0 0 0 0 0 0 0 0 0 0 0 127 0" result="hardAlpha"/>
<feOffset dy="4"/>
<feGaussianBlur stdDeviation="2"/>
<feComposite in2="hardAlpha" operator="out"/>
<feColorMatrix type="matrix" values="0 0 0 0 0 0 0 0 0 0 0 0 0 0 0 0 0 0 0.25 0"/>
<feBlend mode="normal" in2="BackgroundImageFix" result="effect1_dropShadow_2139_2281"/>
<feBlend mode="normal" in="SourceGraphic" in2="effect1_dropShadow_2139_2281" result="shape"/>
</filter>
</defs>
</svg>
