<svg width="198" height="78" viewBox="0 0 198 78" fill="none" xmlns="http://www.w3.org/2000/svg">
<g filter="url(#filter0_dddd_2250_2341)">
<path d="M4 0L193.5 21V56L23 69.5L4 0Z" fill="#E0B3B3"/>
</g>
<g filter="url(#filter1_d_2250_2341)">
<path d="M33.168 42V30.576H40.4C43.312 30.576 44.256 31.904 44.256 33.68C44.256 35.168 43.44 36.096 42.368 36.432V36.464C43.728 36.752 44.032 37.936 44.032 39.552C44.032 40.096 44.048 41.376 44.512 42H41.92C41.744 41.68 41.632 41.104 41.632 40.272C41.632 38.64 41.408 37.488 39.648 37.488H35.568V42H33.168ZM35.568 35.696H39.712C41.04 35.696 41.76 35.296 41.76 34.016C41.76 32.832 40.976 32.368 39.712 32.368H35.568V35.696ZM55.9749 38.32H47.9749C48.0229 39.264 48.6629 40.72 50.8549 40.72C52.3109 40.72 52.9509 40.208 53.3829 39.504H55.7829C55.3029 40.448 54.1509 42.32 50.9189 42.32C47.0949 42.32 45.6709 40.096 45.6709 37.84C45.6709 35.008 47.7669 33.2 50.7749 33.2C54.5349 33.2 55.9749 35.52 55.9749 38V38.32ZM47.9749 36.912H53.6709C53.3989 35.216 51.8949 34.704 50.8069 34.704C49.7829 34.704 48.3429 35.184 47.9749 36.912ZM66.5938 36.048V40.064C66.5938 40.528 66.9298 40.544 67.0738 40.544C67.2818 40.544 67.6178 40.528 67.7938 40.496V42.048C67.3618 42.128 66.9778 42.24 66.2258 42.24C64.7858 42.24 64.6258 41.472 64.5618 41.152C64.1298 41.568 63.0578 42.32 60.5778 42.32C58.3698 42.32 57.1217 41.328 57.1217 39.664C57.1217 37.328 59.5218 37.12 60.9298 36.992C64.0978 36.688 64.4338 36.576 64.4338 35.92C64.4338 34.944 63.3138 34.704 62.0338 34.704C60.5778 34.704 59.7938 35.168 59.7138 36.112H57.5538C57.8738 33.888 59.5218 33.2 62.0338 33.2C66.4658 33.2 66.5938 34.944 66.5938 36.048ZM64.3858 38.592V37.776C63.7458 38.048 63.0578 38.128 61.4898 38.304C59.8258 38.496 59.4258 38.864 59.4258 39.584C59.4258 40.704 60.4498 40.912 61.2018 40.912C62.3858 40.912 64.3858 40.464 64.3858 38.592ZM70.6914 37.792C70.6914 39.232 71.4754 40.624 73.5554 40.624C75.6194 40.624 76.4034 39.232 76.4034 37.792C76.4034 36.384 75.6194 34.992 73.5554 34.992C71.4754 34.992 70.6914 36.384 70.6914 37.792ZM78.5154 30.384V42H76.3074V40.832H76.2754C76.1154 41.344 74.7874 42.32 73.0274 42.32C69.7954 42.32 68.3874 39.968 68.3874 37.792C68.3874 35.648 69.7954 33.296 73.0274 33.296C74.3554 33.296 75.6194 33.712 76.2754 34.736H76.3074V30.384H78.5154ZM86.6153 39.632V35.12H84.8552V33.52H86.6153V30.896H88.8233V33.52H91.1273V35.12H88.8233V38.992C88.8233 39.968 88.8713 40.496 89.6233 40.496C90.1673 40.496 90.6793 40.48 91.2073 40.464V42.064C90.6153 42.144 90.1833 42.192 89.5113 42.192C86.8233 42.192 86.6153 41.232 86.6153 39.632ZM92.4429 42V30.384H94.6509V34.8H94.6829C95.4029 33.888 96.5229 33.296 98.0269 33.296C99.8509 33.296 101.627 33.952 101.627 36.24V42H99.4189V36.944C99.4189 36.032 99.1149 34.992 97.2909 34.992C96.1389 34.992 94.6509 35.632 94.6509 37.44V42H92.4429ZM113.444 38.32H105.444C105.492 39.264 106.132 40.72 108.324 40.72C109.78 40.72 110.42 40.208 110.852 39.504H113.252C112.772 40.448 111.62 42.32 108.388 42.32C104.564 42.32 103.14 40.096 103.14 37.84C103.14 35.008 105.236 33.2 108.244 33.2C112.004 33.2 113.444 35.52 113.444 38V38.32ZM105.444 36.912H111.14C110.868 35.216 109.364 34.704 108.276 34.704C107.252 34.704 105.812 35.184 105.444 36.912ZM129.688 36.048V40.064C129.688 40.528 130.024 40.544 130.168 40.544C130.376 40.544 130.712 40.528 130.888 40.496V42.048C130.456 42.128 130.072 42.24 129.32 42.24C127.88 42.24 127.72 41.472 127.656 41.152C127.224 41.568 126.152 42.32 123.672 42.32C121.464 42.32 120.215 41.328 120.215 39.664C120.215 37.328 122.616 37.12 124.024 36.992C127.192 36.688 127.528 36.576 127.528 35.92C127.528 34.944 126.408 34.704 125.128 34.704C123.672 34.704 122.888 35.168 122.808 36.112H120.648C120.968 33.888 122.616 33.2 125.128 33.2C129.56 33.2 129.688 34.944 129.688 36.048ZM127.48 38.592V37.776C126.84 38.048 126.152 38.128 124.584 38.304C122.92 38.496 122.52 38.864 122.52 39.584C122.52 40.704 123.544 40.912 124.296 40.912C125.48 40.912 127.48 40.464 127.48 38.592ZM131.849 42V33.52H134.057V35.168H134.089C134.681 34.208 135.593 33.296 137.289 33.296C137.625 33.296 137.881 33.328 138.169 33.376V35.552C137.561 35.36 137.145 35.344 136.761 35.344C135.641 35.344 134.057 35.936 134.057 37.904V42H131.849ZM139.943 39.632V35.12H138.183V33.52H139.943V30.896H142.151V33.52H144.455V35.12H142.151V38.992C142.151 39.968 142.199 40.496 142.951 40.496C143.495 40.496 144.007 40.48 144.535 40.464V42.064C143.943 42.144 143.511 42.192 142.839 42.192C140.151 42.192 139.943 41.232 139.943 39.632ZM145.835 42V33.52H148.043V42H145.835ZM145.835 32.176V30.384H148.043V32.176H145.835ZM159.432 36.496H157.128C156.968 35.616 156.04 34.896 154.776 34.896C152.728 34.896 151.832 36.288 151.832 37.76C151.832 39.232 152.632 40.624 154.536 40.624C156.248 40.624 156.712 39.952 157.176 38.752H159.48C158.968 42.272 155.368 42.32 154.776 42.32C150.984 42.32 149.528 40.096 149.528 37.76C149.528 35.024 151.496 33.2 154.776 33.2C156.056 33.2 158.968 33.632 159.432 36.496ZM160.913 42V30.384H163.121V42H160.913ZM175.006 38.32H167.006C167.054 39.264 167.694 40.72 169.886 40.72C171.342 40.72 171.982 40.208 172.414 39.504H174.814C174.334 40.448 173.182 42.32 169.95 42.32C166.126 42.32 164.702 40.096 164.702 37.84C164.702 35.008 166.798 33.2 169.806 33.2C173.566 33.2 175.006 35.52 175.006 38V38.32ZM167.006 36.912H172.702C172.43 35.216 170.926 34.704 169.838 34.704C168.814 34.704 167.374 35.184 167.006 36.912Z" fill="black"/>
</g>
<defs>
<filter id="filter0_dddd_2250_2341" x="0" y="0" width="197.5" height="77.5" filterUnits="userSpaceOnUse" color-interpolation-filters="sRGB">
<feFlood flood-opacity="0" result="BackgroundImageFix"/>
<feColorMatrix in="SourceAlpha" type="matrix" values="0 0 0 0 0 0 0 0 0 0 0 0 0 0 0 0 0 0 127 0" result="hardAlpha"/>
<feOffset dy="4"/>
<feGaussianBlur stdDeviation="2"/>
<feComposite in2="hardAlpha" operator="out"/>
<feColorMatrix type="matrix" values="0 0 0 0 0 0 0 0 0 0 0 0 0 0 0 0 0 0 0.25 0"/>
<feBlend mode="normal" in2="BackgroundImageFix" result="effect1_dropShadow_2250_2341"/>
<feColorMatrix in="SourceAlpha" type="matrix" values="0 0 0 0 0 0 0 0 0 0 0 0 0 0 0 0 0 0 127 0" result="hardAlpha"/>
<feOffset dy="4"/>
<feGaussianBlur stdDeviation="2"/>
<feComposite in2="hardAlpha" operator="out"/>
<feColorMatrix type="matrix" values="0 0 0 0 0 0 0 0 0 0 0 0 0 0 0 0 0 0 0.25 0"/>
<feBlend mode="normal" in2="effect1_dropShadow_2250_2341" result="effect2_dropShadow_2250_2341"/>
<feColorMatrix in="SourceAlpha" type="matrix" values="0 0 0 0 0 0 0 0 0 0 0 0 0 0 0 0 0 0 127 0" result="hardAlpha"/>
<feOffset dy="4"/>
<feGaussianBlur stdDeviation="2"/>
<feComposite in2="hardAlpha" operator="out"/>
<feColorMatrix type="matrix" values="0 0 0 0 0 0 0 0 0 0 0 0 0 0 0 0 0 0 0.25 0"/>
<feBlend mode="normal" in2="effect2_dropShadow_2250_2341" result="effect3_dropShadow_2250_2341"/>
<feColorMatrix in="SourceAlpha" type="matrix" values="0 0 0 0 0 0 0 0 0 0 0 0 0 0 0 0 0 0 127 0" result="hardAlpha"/>
<feOffset dy="4"/>
<feGaussianBlur stdDeviation="2"/>
<feComposite in2="hardAlpha" operator="out"/>
<feColorMatrix type="matrix" values="0 0 0 0 0 0 0 0 0 0 0 0 0 0 0 0 0 0 0.25 0"/>
<feBlend mode="normal" in2="effect3_dropShadow_2250_2341" result="effect4_dropShadow_2250_2341"/>
<feBlend mode="normal" in="SourceGraphic" in2="effect4_dropShadow_2250_2341" result="shape"/>
</filter>
<filter id="filter1_d_2250_2341" x="29.168" y="30.384" width="149.838" height="19.936" filterUnits="userSpaceOnUse" color-interpolation-filters="sRGB">
<feFlood flood-opacity="0" result="BackgroundImageFix"/>
<feColorMatrix in="SourceAlpha" type="matrix" values="0 0 0 0 0 0 0 0 0 0 0 0 0 0 0 0 0 0 127 0" result="hardAlpha"/>
<feOffset dy="4"/>
<feGaussianBlur stdDeviation="2"/>
<feComposite in2="hardAlpha" operator="out"/>
<feColorMatrix type="matrix" values="0 0 0 0 0 0 0 0 0 0 0 0 0 0 0 0 0 0 0.25 0"/>
<feBlend mode="normal" in2="BackgroundImageFix" result="effect1_dropShadow_2250_2341"/>
<feBlend mode="normal" in="SourceGraphic" in2="effect1_dropShadow_2250_2341" result="shape"/>
</filter>
</defs>
</svg>
