<svg width="180" height="75" viewBox="0 0 180 75" fill="none" xmlns="http://www.w3.org/2000/svg">
<g filter="url(#filter0_dddd_2153_2294)">
<path d="M4 20.9375L176 0L167.112 67L21.7751 57.5781L4 20.9375Z" fill="#F77F7F"/>
</g>
<g filter="url(#filter1_d_2153_2294)">
<path d="M25.4493 34V22.576H27.8493V32.112H34.7933V34H25.4493ZM35.9131 34V25.52H38.1211V34H35.9131ZM35.9131 24.176V22.384H38.1211V24.176H35.9131ZM39.9741 34V25.52H42.1821V27.168H42.2141C42.8061 26.208 43.7181 25.296 45.4141 25.296C45.7501 25.296 46.0061 25.328 46.2941 25.376V27.552C45.6861 27.36 45.2701 27.344 44.8861 27.344C43.7661 27.344 42.1821 27.936 42.1821 29.904V34H39.9741ZM57.4124 30.32H49.4124C49.4604 31.264 50.1004 32.72 52.2924 32.72C53.7484 32.72 54.3884 32.208 54.8204 31.504H57.2204C56.7404 32.448 55.5884 34.32 52.3564 34.32C48.5324 34.32 47.1084 32.096 47.1084 29.84C47.1084 27.008 49.2044 25.2 52.2124 25.2C55.9724 25.2 57.4124 27.52 57.4124 30V30.32ZM49.4124 28.912H55.1084C54.8364 27.216 53.3324 26.704 52.2444 26.704C51.2204 26.704 49.7804 27.184 49.4124 28.912ZM64.6163 34V22.384H66.8243V34H64.6163ZM69.3493 24.848V22.576H71.8453V24.304C71.8453 25.984 71.1573 27.28 69.3493 27.52V26.576C70.3253 26.256 70.4693 25.824 70.5333 24.848H69.3493ZM83.4062 28.048V32.064C83.4062 32.528 83.7423 32.544 83.8863 32.544C84.0943 32.544 84.4303 32.528 84.6063 32.496V34.048C84.1743 34.128 83.7903 34.24 83.0383 34.24C81.5983 34.24 81.4383 33.472 81.3743 33.152C80.9423 33.568 79.8703 34.32 77.3903 34.32C75.1823 34.32 73.9342 33.328 73.9342 31.664C73.9342 29.328 76.3343 29.12 77.7423 28.992C80.9103 28.688 81.2463 28.576 81.2463 27.92C81.2463 26.944 80.1263 26.704 78.8463 26.704C77.3903 26.704 76.6063 27.168 76.5263 28.112H74.3663C74.6863 25.888 76.3343 25.2 78.8463 25.2C83.2783 25.2 83.4062 26.944 83.4062 28.048ZM81.1983 30.592V29.776C80.5583 30.048 79.8703 30.128 78.3023 30.304C76.6383 30.496 76.2383 30.864 76.2383 31.584C76.2383 32.704 77.2623 32.912 78.0143 32.912C79.1983 32.912 81.1983 32.464 81.1983 30.592ZM85.5679 34V25.52H87.7759V27.168H87.8079C88.3999 26.208 89.3119 25.296 91.0079 25.296C91.3439 25.296 91.5999 25.328 91.8879 25.376V27.552C91.2799 27.36 90.8639 27.344 90.4799 27.344C89.3599 27.344 87.7759 27.936 87.7759 29.904V34H85.5679ZM93.6621 31.632V27.12H91.9021V25.52H93.6621V22.896H95.8701V25.52H98.1741V27.12H95.8701V30.992C95.8701 31.968 95.9181 32.496 96.6701 32.496C97.2141 32.496 97.7261 32.48 98.2541 32.464V34.064C97.6621 34.144 97.2301 34.192 96.5581 34.192C93.8701 34.192 93.6621 33.232 93.6621 31.632ZM99.5538 34V25.52H101.762V34H99.5538ZM99.5538 24.176V22.384H101.762V24.176H99.5538ZM113.151 28.496H110.847C110.687 27.616 109.759 26.896 108.495 26.896C106.447 26.896 105.551 28.288 105.551 29.76C105.551 31.232 106.351 32.624 108.255 32.624C109.967 32.624 110.431 31.952 110.895 30.752H113.199C112.687 34.272 109.087 34.32 108.495 34.32C104.703 34.32 103.247 32.096 103.247 29.76C103.247 27.024 105.215 25.2 108.495 25.2C109.775 25.2 112.687 25.632 113.151 28.496ZM114.632 34V22.384H116.84V34H114.632ZM128.725 30.32H120.725C120.773 31.264 121.413 32.72 123.605 32.72C125.061 32.72 125.701 32.208 126.133 31.504H128.533C128.053 32.448 126.901 34.32 123.669 34.32C119.845 34.32 118.421 32.096 118.421 29.84C118.421 27.008 120.517 25.2 123.525 25.2C127.285 25.2 128.725 27.52 128.725 30V30.32ZM120.725 28.912H126.421C126.149 27.216 124.645 26.704 123.557 26.704C122.533 26.704 121.093 27.184 120.725 28.912ZM135.433 31.344H137.833C137.897 32.624 139.369 32.816 140.169 32.816C141.273 32.816 142.473 32.528 142.473 31.728C142.473 31.072 142.105 30.848 139.721 30.528C137.097 30.176 135.721 29.872 135.721 27.936C135.721 25.52 138.537 25.2 139.961 25.2C141.273 25.2 144.425 25.392 144.553 28.112H142.249C142.073 26.848 140.601 26.704 139.849 26.704C138.601 26.704 137.929 27.232 137.929 27.68C137.929 28.368 138.137 28.48 140.265 28.784C143.049 29.184 144.873 29.456 144.873 31.424C144.873 33.584 142.809 34.32 140.185 34.32C138.377 34.32 135.513 33.936 135.433 31.344ZM146.24 31.184V25.52H148.448V30.352C148.448 31.648 148.752 32.624 150.64 32.624C151.616 32.624 153.216 31.984 153.216 30.176V25.52H155.424V34H153.216V32.816H153.184C152.464 33.728 151.344 34.32 149.84 34.32C148.016 34.32 146.24 33.664 146.24 31.184ZM157.209 34V25.52H159.417V27.168H159.449C160.041 26.208 160.953 25.296 162.649 25.296C162.985 25.296 163.241 25.328 163.529 25.376V27.552C162.921 27.36 162.505 27.344 162.121 27.344C161.001 27.344 159.417 27.936 159.417 29.904V34H157.209ZM46.0928 52V40.384H48.3008V52H46.0928ZM59.2578 46.048V50.064C59.2578 50.528 59.5938 50.544 59.7378 50.544C59.9458 50.544 60.2818 50.528 60.4578 50.496V52.048C60.0258 52.128 59.6418 52.24 58.8898 52.24C57.4498 52.24 57.2898 51.472 57.2258 51.152C56.7938 51.568 55.7218 52.32 53.2418 52.32C51.0338 52.32 49.7858 51.328 49.7858 49.664C49.7858 47.328 52.1858 47.12 53.5938 46.992C56.7618 46.688 57.0978 46.576 57.0978 45.92C57.0978 44.944 55.9778 44.704 54.6978 44.704C53.2418 44.704 52.4578 45.168 52.3778 46.112H50.2178C50.5378 43.888 52.1858 43.2 54.6978 43.2C59.1298 43.2 59.2578 44.944 59.2578 46.048ZM57.0498 48.592V47.776C56.4098 48.048 55.7218 48.128 54.1538 48.304C52.4898 48.496 52.0898 48.864 52.0898 49.584C52.0898 50.704 53.1138 50.912 53.8658 50.912C55.0498 50.912 57.0498 50.464 57.0498 48.592ZM73.6364 52V46.944C73.6364 46.064 73.5244 44.992 71.5564 44.992C70.7884 44.992 69.2524 45.424 69.2524 47.28V52H67.0444V43.52H69.2524V44.8H69.2844C70.0044 43.888 71.1244 43.296 72.6284 43.296C73.6204 43.296 75.0284 43.472 75.6204 44.864C76.1644 44.08 77.2844 43.296 79.0604 43.296C80.4204 43.296 82.4364 43.776 82.4364 46.368V52H80.2284V46.944C80.2284 46.064 80.1164 44.992 78.1484 44.992C77.3804 44.992 75.8444 45.424 75.8444 47.28V52H73.6364ZM84.2319 49.184V43.52H86.4399V48.352C86.4399 49.648 86.7439 50.624 88.6319 50.624C89.6079 50.624 91.2079 49.984 91.2079 48.176V43.52H93.4159V52H91.2079V50.816H91.1759C90.4559 51.728 89.3359 52.32 87.8319 52.32C86.0079 52.32 84.2319 51.664 84.2319 49.184ZM94.7687 49.344H97.1687C97.2327 50.624 98.7047 50.816 99.5047 50.816C100.609 50.816 101.809 50.528 101.809 49.728C101.809 49.072 101.441 48.848 99.0567 48.528C96.4327 48.176 95.0567 47.872 95.0567 45.936C95.0567 43.52 97.8727 43.2 99.2967 43.2C100.609 43.2 103.761 43.392 103.889 46.112H101.585C101.409 44.848 99.9367 44.704 99.1847 44.704C97.9367 44.704 97.2647 45.232 97.2647 45.68C97.2647 46.368 97.4727 46.48 99.6007 46.784C102.385 47.184 104.209 47.456 104.209 49.424C104.209 51.584 102.145 52.32 99.5207 52.32C97.7127 52.32 94.8487 51.936 94.7687 49.344ZM105.64 52V43.52H107.848V52H105.64ZM105.64 42.176V40.384H107.848V42.176H105.64ZM111.637 47.792C111.637 49.232 112.421 50.624 114.501 50.624C116.565 50.624 117.349 49.232 117.349 47.792C117.349 46.384 116.565 44.992 114.501 44.992C112.421 44.992 111.637 46.384 111.637 47.792ZM117.253 44.736V43.52H119.461V55.232H117.253V50.832H117.221C117.061 51.344 115.733 52.32 113.973 52.32C110.741 52.32 109.333 49.968 109.333 47.792C109.333 45.648 110.741 43.296 113.973 43.296C115.301 43.296 116.565 43.712 117.221 44.736H117.253ZM121.248 49.184V43.52H123.456V48.352C123.456 49.648 123.76 50.624 125.648 50.624C126.624 50.624 128.224 49.984 128.224 48.176V43.52H130.432V52H128.224V50.816H128.192C127.472 51.728 126.352 52.32 124.848 52.32C123.024 52.32 121.248 51.664 121.248 49.184ZM142.248 48.32H134.248C134.296 49.264 134.936 50.72 137.128 50.72C138.584 50.72 139.224 50.208 139.656 49.504H142.056C141.576 50.448 140.424 52.32 137.192 52.32C133.368 52.32 131.944 50.096 131.944 47.84C131.944 45.008 134.04 43.2 137.048 43.2C140.808 43.2 142.248 45.52 142.248 48V48.32ZM134.248 46.912H139.944C139.672 45.216 138.168 44.704 137.08 44.704C136.056 44.704 134.616 45.184 134.248 46.912Z" fill="black"/>
</g>
<defs>
<filter id="filter0_dddd_2153_2294" x="0" y="0" width="180" height="75" filterUnits="userSpaceOnUse" color-interpolation-filters="sRGB">
<feFlood flood-opacity="0" result="BackgroundImageFix"/>
<feColorMatrix in="SourceAlpha" type="matrix" values="0 0 0 0 0 0 0 0 0 0 0 0 0 0 0 0 0 0 127 0" result="hardAlpha"/>
<feOffset dy="4"/>
<feGaussianBlur stdDeviation="2"/>
<feComposite in2="hardAlpha" operator="out"/>
<feColorMatrix type="matrix" values="0 0 0 0 0 0 0 0 0 0 0 0 0 0 0 0 0 0 0.25 0"/>
<feBlend mode="normal" in2="BackgroundImageFix" result="effect1_dropShadow_2153_2294"/>
<feColorMatrix in="SourceAlpha" type="matrix" values="0 0 0 0 0 0 0 0 0 0 0 0 0 0 0 0 0 0 127 0" result="hardAlpha"/>
<feOffset dy="4"/>
<feGaussianBlur stdDeviation="2"/>
<feComposite in2="hardAlpha" operator="out"/>
<feColorMatrix type="matrix" values="0 0 0 0 0 0 0 0 0 0 0 0 0 0 0 0 0 0 0.25 0"/>
<feBlend mode="normal" in2="effect1_dropShadow_2153_2294" result="effect2_dropShadow_2153_2294"/>
<feColorMatrix in="SourceAlpha" type="matrix" values="0 0 0 0 0 0 0 0 0 0 0 0 0 0 0 0 0 0 127 0" result="hardAlpha"/>
<feOffset dy="4"/>
<feGaussianBlur stdDeviation="2"/>
<feComposite in2="hardAlpha" operator="out"/>
<feColorMatrix type="matrix" values="0 0 0 0 0 0 0 0 0 0 0 0 0 0 0 0 0 0 0.25 0"/>
<feBlend mode="normal" in2="effect2_dropShadow_2153_2294" result="effect3_dropShadow_2153_2294"/>
<feColorMatrix in="SourceAlpha" type="matrix" values="0 0 0 0 0 0 0 0 0 0 0 0 0 0 0 0 0 0 127 0" result="hardAlpha"/>
<feOffset dy="4"/>
<feGaussianBlur stdDeviation="2"/>
<feComposite in2="hardAlpha" operator="out"/>
<feColorMatrix type="matrix" values="0 0 0 0 0 0 0 0 0 0 0 0 0 0 0 0 0 0 0.25 0"/>
<feBlend mode="normal" in2="effect3_dropShadow_2153_2294" result="effect4_dropShadow_2153_2294"/>
<feBlend mode="normal" in="SourceGraphic" in2="effect4_dropShadow_2153_2294" result="shape"/>
</filter>
<filter id="filter1_d_2153_2294" x="21.4492" y="22.384" width="146.079" height="40.848" filterUnits="userSpaceOnUse" color-interpolation-filters="sRGB">
<feFlood flood-opacity="0" result="BackgroundImageFix"/>
<feColorMatrix in="SourceAlpha" type="matrix" values="0 0 0 0 0 0 0 0 0 0 0 0 0 0 0 0 0 0 127 0" result="hardAlpha"/>
<feOffset dy="4"/>
<feGaussianBlur stdDeviation="2"/>
<feComposite in2="hardAlpha" operator="out"/>
<feColorMatrix type="matrix" values="0 0 0 0 0 0 0 0 0 0 0 0 0 0 0 0 0 0 0.25 0"/>
<feBlend mode="normal" in2="BackgroundImageFix" result="effect1_dropShadow_2153_2294"/>
<feBlend mode="normal" in="SourceGraphic" in2="effect1_dropShadow_2153_2294" result="shape"/>
</filter>
</defs>
</svg>
