<svg width="180" height="75" viewBox="0 0 180 75" fill="none" xmlns="http://www.w3.org/2000/svg">
<g filter="url(#filter0_dddd_2148_2285)">
<path d="M4 20.9375L176 0L167.112 67L21.7751 57.5781L4 20.9375Z" fill="#F77F7F"/>
</g>
<g filter="url(#filter1_d_2148_2285)">
<path d="M56.1368 35V23.576H58.5368V33.112H65.4808V35H56.1368ZM66.6006 35V26.52H68.8086V35H66.6006ZM66.6006 25.176V23.384H68.8086V25.176H66.6006ZM70.6616 35V26.52H72.8696V28.168H72.9016C73.4936 27.208 74.4056 26.296 76.1016 26.296C76.4376 26.296 76.6936 26.328 76.9816 26.376V28.552C76.3736 28.36 75.9576 28.344 75.5736 28.344C74.4536 28.344 72.8696 28.936 72.8696 30.904V35H70.6616ZM88.0999 31.32H80.0999C80.1479 32.264 80.7879 33.72 82.9799 33.72C84.4359 33.72 85.0759 33.208 85.5079 32.504H87.9079C87.4279 33.448 86.2759 35.32 83.0439 35.32C79.2199 35.32 77.7959 33.096 77.7959 30.84C77.7959 28.008 79.8919 26.2 82.8999 26.2C86.6599 26.2 88.0999 28.52 88.0999 31V31.32ZM80.0999 29.912H85.7959C85.5239 28.216 84.0199 27.704 82.9319 27.704C81.9079 27.704 80.4679 28.184 80.0999 29.912ZM95.3038 35V23.384H97.5118V35H95.3038ZM100.037 25.848V23.576H102.533V25.304C102.533 26.984 101.845 28.28 100.037 28.52V27.576C101.013 27.256 101.157 26.824 101.221 25.848H100.037ZM114.094 29.048V33.064C114.094 33.528 114.43 33.544 114.574 33.544C114.782 33.544 115.118 33.528 115.294 33.496V35.048C114.862 35.128 114.478 35.24 113.726 35.24C112.286 35.24 112.126 34.472 112.062 34.152C111.63 34.568 110.558 35.32 108.078 35.32C105.87 35.32 104.622 34.328 104.622 32.664C104.622 30.328 107.022 30.12 108.43 29.992C111.598 29.688 111.934 29.576 111.934 28.92C111.934 27.944 110.814 27.704 109.534 27.704C108.078 27.704 107.294 28.168 107.214 29.112H105.054C105.374 26.888 107.022 26.2 109.534 26.2C113.966 26.2 114.094 27.944 114.094 29.048ZM111.886 31.592V30.776C111.246 31.048 110.558 31.128 108.99 31.304C107.326 31.496 106.926 31.864 106.926 32.584C106.926 33.704 107.95 33.912 108.702 33.912C109.886 33.912 111.886 33.464 111.886 31.592ZM116.255 35V26.52H118.463V28.168H118.495C119.087 27.208 119.999 26.296 121.695 26.296C122.031 26.296 122.287 26.328 122.575 26.376V28.552C121.967 28.36 121.551 28.344 121.167 28.344C120.047 28.344 118.463 28.936 118.463 30.904V35H116.255ZM124.35 32.632V28.12H122.59V26.52H124.35V23.896H126.558V26.52H128.862V28.12H126.558V31.992C126.558 32.968 126.606 33.496 127.358 33.496C127.902 33.496 128.414 33.48 128.942 33.464V35.064C128.35 35.144 127.918 35.192 127.246 35.192C124.558 35.192 124.35 34.232 124.35 32.632ZM130.241 35V26.52H132.449V35H130.241ZM130.241 25.176V23.384H132.449V25.176H130.241ZM143.838 29.496H141.534C141.374 28.616 140.446 27.896 139.182 27.896C137.134 27.896 136.238 29.288 136.238 30.76C136.238 32.232 137.038 33.624 138.942 33.624C140.654 33.624 141.118 32.952 141.582 31.752H143.886C143.374 35.272 139.774 35.32 139.182 35.32C135.39 35.32 133.934 33.096 133.934 30.76C133.934 28.024 135.902 26.2 139.182 26.2C140.462 26.2 143.374 26.632 143.838 29.496ZM145.319 35V23.384H147.527V35H145.319ZM159.412 31.32H151.412C151.46 32.264 152.1 33.72 154.292 33.72C155.748 33.72 156.388 33.208 156.82 32.504H159.22C158.74 33.448 157.588 35.32 154.356 35.32C150.532 35.32 149.108 33.096 149.108 30.84C149.108 28.008 151.204 26.2 154.212 26.2C157.972 26.2 159.412 28.52 159.412 31V31.32ZM151.412 29.912H157.108C156.836 28.216 155.332 27.704 154.244 27.704C153.22 27.704 151.78 28.184 151.412 29.912ZM64.4484 50.344H66.8484C66.9124 51.624 68.3844 51.816 69.1844 51.816C70.2884 51.816 71.4884 51.528 71.4884 50.728C71.4884 50.072 71.1204 49.848 68.7364 49.528C66.1124 49.176 64.7364 48.872 64.7364 46.936C64.7364 44.52 67.5524 44.2 68.9764 44.2C70.2884 44.2 73.4404 44.392 73.5684 47.112H71.2644C71.0884 45.848 69.6164 45.704 68.8644 45.704C67.6164 45.704 66.9444 46.232 66.9444 46.68C66.9444 47.368 67.1524 47.48 69.2804 47.784C72.0644 48.184 73.8884 48.456 73.8884 50.424C73.8884 52.584 71.8244 53.32 69.2004 53.32C67.3924 53.32 64.5284 52.936 64.4484 50.344ZM75.2554 50.184V44.52H77.4634V49.352C77.4634 50.648 77.7674 51.624 79.6554 51.624C80.6314 51.624 82.2314 50.984 82.2314 49.176V44.52H84.4394V53H82.2314V51.816H82.1994C81.4794 52.728 80.3594 53.32 78.8554 53.32C77.0314 53.32 75.2554 52.664 75.2554 50.184ZM86.2241 53V44.52H88.4321V46.168H88.4641C89.0561 45.208 89.9681 44.296 91.6641 44.296C92.0001 44.296 92.2561 44.328 92.5441 44.376V46.552C91.9361 46.36 91.5201 46.344 91.1361 46.344C90.0161 46.344 88.4321 46.936 88.4321 48.904V53H86.2241ZM99.3194 53V41.384H101.527V53H99.3194ZM113.412 49.32H105.412C105.46 50.264 106.1 51.72 108.292 51.72C109.748 51.72 110.388 51.208 110.82 50.504H113.22C112.74 51.448 111.588 53.32 108.356 53.32C104.532 53.32 103.108 51.096 103.108 48.84C103.108 46.008 105.204 44.2 108.212 44.2C111.972 44.2 113.412 46.52 113.412 49V49.32ZM105.412 47.912H111.108C110.836 46.216 109.332 45.704 108.244 45.704C107.22 45.704 105.78 46.184 105.412 47.912ZM121.224 53V46.12H119.48V44.52H121.224V43.432C121.224 42.488 121.464 41.256 123.768 41.256C124.728 41.256 125.24 41.288 125.752 41.32V42.92C125.512 42.888 125.032 42.856 124.616 42.856C123.608 42.856 123.432 43.096 123.432 43.864V44.52H125.752V46.12H123.432V53H121.224ZM126.538 53V44.52H128.746V53H126.538ZM126.538 43.176V41.384H128.746V43.176H126.538ZM130.663 53V41.384H132.871V53H130.663ZM141.316 53V47.944C141.316 47.064 141.204 45.992 139.236 45.992C138.468 45.992 136.932 46.424 136.932 48.28V53H134.724V44.52H136.932V45.8H136.964C137.684 44.888 138.804 44.296 140.308 44.296C141.3 44.296 142.708 44.472 143.3 45.864C143.844 45.08 144.964 44.296 146.74 44.296C148.1 44.296 150.116 44.776 150.116 47.368V53H147.908V47.944C147.908 47.064 147.796 45.992 145.828 45.992C145.06 45.992 143.524 46.424 143.524 48.28V53H141.316Z" fill="black"/>
</g>
<defs>
<filter id="filter0_dddd_2148_2285" x="0" y="0" width="180" height="75" filterUnits="userSpaceOnUse" color-interpolation-filters="sRGB">
<feFlood flood-opacity="0" result="BackgroundImageFix"/>
<feColorMatrix in="SourceAlpha" type="matrix" values="0 0 0 0 0 0 0 0 0 0 0 0 0 0 0 0 0 0 127 0" result="hardAlpha"/>
<feOffset dy="4"/>
<feGaussianBlur stdDeviation="2"/>
<feComposite in2="hardAlpha" operator="out"/>
<feColorMatrix type="matrix" values="0 0 0 0 0 0 0 0 0 0 0 0 0 0 0 0 0 0 0.25 0"/>
<feBlend mode="normal" in2="BackgroundImageFix" result="effect1_dropShadow_2148_2285"/>
<feColorMatrix in="SourceAlpha" type="matrix" values="0 0 0 0 0 0 0 0 0 0 0 0 0 0 0 0 0 0 127 0" result="hardAlpha"/>
<feOffset dy="4"/>
<feGaussianBlur stdDeviation="2"/>
<feComposite in2="hardAlpha" operator="out"/>
<feColorMatrix type="matrix" values="0 0 0 0 0 0 0 0 0 0 0 0 0 0 0 0 0 0 0.25 0"/>
<feBlend mode="normal" in2="effect1_dropShadow_2148_2285" result="effect2_dropShadow_2148_2285"/>
<feColorMatrix in="SourceAlpha" type="matrix" values="0 0 0 0 0 0 0 0 0 0 0 0 0 0 0 0 0 0 127 0" result="hardAlpha"/>
<feOffset dy="4"/>
<feGaussianBlur stdDeviation="2"/>
<feComposite in2="hardAlpha" operator="out"/>
<feColorMatrix type="matrix" values="0 0 0 0 0 0 0 0 0 0 0 0 0 0 0 0 0 0 0.25 0"/>
<feBlend mode="normal" in2="effect2_dropShadow_2148_2285" result="effect3_dropShadow_2148_2285"/>
<feColorMatrix in="SourceAlpha" type="matrix" values="0 0 0 0 0 0 0 0 0 0 0 0 0 0 0 0 0 0 127 0" result="hardAlpha"/>
<feOffset dy="4"/>
<feGaussianBlur stdDeviation="2"/>
<feComposite in2="hardAlpha" operator="out"/>
<feColorMatrix type="matrix" values="0 0 0 0 0 0 0 0 0 0 0 0 0 0 0 0 0 0 0.25 0"/>
<feBlend mode="normal" in2="effect3_dropShadow_2148_2285" result="effect4_dropShadow_2148_2285"/>
<feBlend mode="normal" in="SourceGraphic" in2="effect4_dropShadow_2148_2285" result="shape"/>
</filter>
<filter id="filter1_d_2148_2285" x="52.1367" y="23.384" width="111.276" height="37.936" filterUnits="userSpaceOnUse" color-interpolation-filters="sRGB">
<feFlood flood-opacity="0" result="BackgroundImageFix"/>
<feColorMatrix in="SourceAlpha" type="matrix" values="0 0 0 0 0 0 0 0 0 0 0 0 0 0 0 0 0 0 127 0" result="hardAlpha"/>
<feOffset dy="4"/>
<feGaussianBlur stdDeviation="2"/>
<feComposite in2="hardAlpha" operator="out"/>
<feColorMatrix type="matrix" values="0 0 0 0 0 0 0 0 0 0 0 0 0 0 0 0 0 0 0.25 0"/>
<feBlend mode="normal" in2="BackgroundImageFix" result="effect1_dropShadow_2148_2285"/>
<feBlend mode="normal" in="SourceGraphic" in2="effect1_dropShadow_2148_2285" result="shape"/>
</filter>
</defs>
</svg>
