<svg width="180" height="75" viewBox="0 0 180 75" fill="none" xmlns="http://www.w3.org/2000/svg">
<g filter="url(#filter0_dddd_2153_2288)">
<path d="M4 20.9375L176 0L167.112 67L21.7751 57.5781L4 20.9375Z" fill="#F77F7F"/>
</g>
<g filter="url(#filter1_d_2153_2288)">
<path d="M26.4493 34V22.576H28.8493V32.112H35.7933V34H26.4493ZM36.9131 34V25.52H39.1211V34H36.9131ZM36.9131 24.176V22.384H39.1211V24.176H36.9131ZM40.9741 34V25.52H43.1821V27.168H43.2141C43.8061 26.208 44.7181 25.296 46.4141 25.296C46.7501 25.296 47.0061 25.328 47.2941 25.376V27.552C46.6861 27.36 46.2701 27.344 45.8861 27.344C44.7661 27.344 43.1821 27.936 43.1821 29.904V34H40.9741ZM58.4124 30.32H50.4124C50.4604 31.264 51.1004 32.72 53.2924 32.72C54.7484 32.72 55.3884 32.208 55.8204 31.504H58.2204C57.7404 32.448 56.5884 34.32 53.3564 34.32C49.5324 34.32 48.1084 32.096 48.1084 29.84C48.1084 27.008 50.2044 25.2 53.2124 25.2C56.9724 25.2 58.4124 27.52 58.4124 30V30.32ZM50.4124 28.912H56.1084C55.8364 27.216 54.3324 26.704 53.2444 26.704C52.2204 26.704 50.7804 27.184 50.4124 28.912ZM65.6163 34V22.384H67.8243V34H65.6163ZM70.3493 24.848V22.576H72.8453V24.304C72.8453 25.984 72.1573 27.28 70.3493 27.52V26.576C71.3253 26.256 71.4693 25.824 71.5333 24.848H70.3493ZM84.4062 28.048V32.064C84.4062 32.528 84.7423 32.544 84.8863 32.544C85.0943 32.544 85.4303 32.528 85.6063 32.496V34.048C85.1743 34.128 84.7903 34.24 84.0383 34.24C82.5983 34.24 82.4383 33.472 82.3743 33.152C81.9423 33.568 80.8703 34.32 78.3903 34.32C76.1823 34.32 74.9342 33.328 74.9342 31.664C74.9342 29.328 77.3343 29.12 78.7423 28.992C81.9103 28.688 82.2463 28.576 82.2463 27.92C82.2463 26.944 81.1263 26.704 79.8463 26.704C78.3903 26.704 77.6063 27.168 77.5263 28.112H75.3663C75.6863 25.888 77.3343 25.2 79.8463 25.2C84.2783 25.2 84.4062 26.944 84.4062 28.048ZM82.1983 30.592V29.776C81.5583 30.048 80.8703 30.128 79.3023 30.304C77.6383 30.496 77.2383 30.864 77.2383 31.584C77.2383 32.704 78.2623 32.912 79.0143 32.912C80.1983 32.912 82.1983 32.464 82.1983 30.592ZM86.5679 34V25.52H88.7759V27.168H88.8079C89.3999 26.208 90.3119 25.296 92.0079 25.296C92.3439 25.296 92.5999 25.328 92.8879 25.376V27.552C92.2799 27.36 91.8639 27.344 91.4799 27.344C90.3599 27.344 88.7759 27.936 88.7759 29.904V34H86.5679ZM94.6621 31.632V27.12H92.9021V25.52H94.6621V22.896H96.8701V25.52H99.1741V27.12H96.8701V30.992C96.8701 31.968 96.9181 32.496 97.6701 32.496C98.2141 32.496 98.7261 32.48 99.2541 32.464V34.064C98.6621 34.144 98.2301 34.192 97.5581 34.192C94.8701 34.192 94.6621 33.232 94.6621 31.632ZM100.554 34V25.52H102.762V34H100.554ZM100.554 24.176V22.384H102.762V24.176H100.554ZM114.151 28.496H111.847C111.687 27.616 110.759 26.896 109.495 26.896C107.447 26.896 106.551 28.288 106.551 29.76C106.551 31.232 107.351 32.624 109.255 32.624C110.967 32.624 111.431 31.952 111.895 30.752H114.199C113.687 34.272 110.087 34.32 109.495 34.32C105.703 34.32 104.247 32.096 104.247 29.76C104.247 27.024 106.215 25.2 109.495 25.2C110.775 25.2 113.687 25.632 114.151 28.496ZM115.632 34V22.384H117.84V34H115.632ZM129.725 30.32H121.725C121.773 31.264 122.413 32.72 124.605 32.72C126.061 32.72 126.701 32.208 127.133 31.504H129.533C129.053 32.448 127.901 34.32 124.669 34.32C120.845 34.32 119.421 32.096 119.421 29.84C119.421 27.008 121.517 25.2 124.525 25.2C128.285 25.2 129.725 27.52 129.725 30V30.32ZM121.725 28.912H127.421C127.149 27.216 125.645 26.704 124.557 26.704C123.533 26.704 122.093 27.184 121.725 28.912ZM136.433 31.344H138.833C138.897 32.624 140.369 32.816 141.169 32.816C142.273 32.816 143.473 32.528 143.473 31.728C143.473 31.072 143.105 30.848 140.721 30.528C138.097 30.176 136.721 29.872 136.721 27.936C136.721 25.52 139.537 25.2 140.961 25.2C142.273 25.2 145.425 25.392 145.553 28.112H143.249C143.073 26.848 141.601 26.704 140.849 26.704C139.601 26.704 138.929 27.232 138.929 27.68C138.929 28.368 139.137 28.48 141.265 28.784C144.049 29.184 145.873 29.456 145.873 31.424C145.873 33.584 143.809 34.32 141.185 34.32C139.377 34.32 136.513 33.936 136.433 31.344ZM147.24 31.184V25.52H149.448V30.352C149.448 31.648 149.752 32.624 151.64 32.624C152.616 32.624 154.216 31.984 154.216 30.176V25.52H156.424V34H154.216V32.816H154.184C153.464 33.728 152.344 34.32 150.84 34.32C149.016 34.32 147.24 33.664 147.24 31.184ZM158.209 34V25.52H160.417V27.168H160.449C161.041 26.208 161.953 25.296 163.649 25.296C163.985 25.296 164.241 25.328 164.529 25.376V27.552C163.921 27.36 163.505 27.344 163.121 27.344C162.001 27.344 160.417 27.936 160.417 29.904V34H158.209ZM66.6709 52V40.384H68.8789V52H66.6709ZM80.7639 48.32H72.7639C72.8119 49.264 73.4519 50.72 75.6439 50.72C77.0999 50.72 77.7399 50.208 78.1719 49.504H80.5719C80.0919 50.448 78.9399 52.32 75.7079 52.32C71.8839 52.32 70.4599 50.096 70.4599 47.84C70.4599 45.008 72.5559 43.2 75.5639 43.2C79.3239 43.2 80.7639 45.52 80.7639 48V48.32ZM72.7639 46.912H78.4599C78.1879 45.216 76.6839 44.704 75.5959 44.704C74.5719 44.704 73.1319 45.184 72.7639 46.912ZM87.9678 52V40.384H90.1758V52H87.9678ZM92.0928 52V43.52H94.3008V52H92.0928ZM92.0928 42.176V40.384H94.3008V42.176H92.0928ZM99.1138 52L95.2418 43.52H97.7378L100.266 49.824L102.89 43.52H105.386L101.514 52H99.1138ZM106.232 52V43.52H108.44V45.168H108.472C109.064 44.208 109.976 43.296 111.672 43.296C112.008 43.296 112.264 43.328 112.552 43.376V45.552C111.944 45.36 111.528 45.344 111.144 45.344C110.024 45.344 108.44 45.936 108.44 47.904V52H106.232ZM123.67 48.32H115.67C115.718 49.264 116.358 50.72 118.55 50.72C120.006 50.72 120.646 50.208 121.078 49.504H123.478C122.998 50.448 121.846 52.32 118.614 52.32C114.79 52.32 113.366 50.096 113.366 47.84C113.366 45.008 115.462 43.2 118.47 43.2C122.23 43.2 123.67 45.52 123.67 48V48.32ZM115.67 46.912H121.366C121.094 45.216 119.59 44.704 118.502 44.704C117.478 44.704 116.038 45.184 115.67 46.912Z" fill="black"/>
</g>
<defs>
<filter id="filter0_dddd_2153_2288" x="0" y="0" width="180" height="75" filterUnits="userSpaceOnUse" color-interpolation-filters="sRGB">
<feFlood flood-opacity="0" result="BackgroundImageFix"/>
<feColorMatrix in="SourceAlpha" type="matrix" values="0 0 0 0 0 0 0 0 0 0 0 0 0 0 0 0 0 0 127 0" result="hardAlpha"/>
<feOffset dy="4"/>
<feGaussianBlur stdDeviation="2"/>
<feComposite in2="hardAlpha" operator="out"/>
<feColorMatrix type="matrix" values="0 0 0 0 0 0 0 0 0 0 0 0 0 0 0 0 0 0 0.25 0"/>
<feBlend mode="normal" in2="BackgroundImageFix" result="effect1_dropShadow_2153_2288"/>
<feColorMatrix in="SourceAlpha" type="matrix" values="0 0 0 0 0 0 0 0 0 0 0 0 0 0 0 0 0 0 127 0" result="hardAlpha"/>
<feOffset dy="4"/>
<feGaussianBlur stdDeviation="2"/>
<feComposite in2="hardAlpha" operator="out"/>
<feColorMatrix type="matrix" values="0 0 0 0 0 0 0 0 0 0 0 0 0 0 0 0 0 0 0.25 0"/>
<feBlend mode="normal" in2="effect1_dropShadow_2153_2288" result="effect2_dropShadow_2153_2288"/>
<feColorMatrix in="SourceAlpha" type="matrix" values="0 0 0 0 0 0 0 0 0 0 0 0 0 0 0 0 0 0 127 0" result="hardAlpha"/>
<feOffset dy="4"/>
<feGaussianBlur stdDeviation="2"/>
<feComposite in2="hardAlpha" operator="out"/>
<feColorMatrix type="matrix" values="0 0 0 0 0 0 0 0 0 0 0 0 0 0 0 0 0 0 0.25 0"/>
<feBlend mode="normal" in2="effect2_dropShadow_2153_2288" result="effect3_dropShadow_2153_2288"/>
<feColorMatrix in="SourceAlpha" type="matrix" values="0 0 0 0 0 0 0 0 0 0 0 0 0 0 0 0 0 0 127 0" result="hardAlpha"/>
<feOffset dy="4"/>
<feGaussianBlur stdDeviation="2"/>
<feComposite in2="hardAlpha" operator="out"/>
<feColorMatrix type="matrix" values="0 0 0 0 0 0 0 0 0 0 0 0 0 0 0 0 0 0 0.25 0"/>
<feBlend mode="normal" in2="effect3_dropShadow_2153_2288" result="effect4_dropShadow_2153_2288"/>
<feBlend mode="normal" in="SourceGraphic" in2="effect4_dropShadow_2153_2288" result="shape"/>
</filter>
<filter id="filter1_d_2153_2288" x="22.4492" y="22.384" width="146.079" height="37.936" filterUnits="userSpaceOnUse" color-interpolation-filters="sRGB">
<feFlood flood-opacity="0" result="BackgroundImageFix"/>
<feColorMatrix in="SourceAlpha" type="matrix" values="0 0 0 0 0 0 0 0 0 0 0 0 0 0 0 0 0 0 127 0" result="hardAlpha"/>
<feOffset dy="4"/>
<feGaussianBlur stdDeviation="2"/>
<feComposite in2="hardAlpha" operator="out"/>
<feColorMatrix type="matrix" values="0 0 0 0 0 0 0 0 0 0 0 0 0 0 0 0 0 0 0.25 0"/>
<feBlend mode="normal" in2="BackgroundImageFix" result="effect1_dropShadow_2153_2288"/>
<feBlend mode="normal" in="SourceGraphic" in2="effect1_dropShadow_2153_2288" result="shape"/>
</filter>
</defs>
</svg>
