<svg width="143" height="74" viewBox="0 0 143 74" fill="none" xmlns="http://www.w3.org/2000/svg">
<g filter="url(#filter0_dddd_2153_2291)">
<path d="M27.6433 0H116.51L132 66L4 48.2927L27.6433 0Z" fill="#FF3F3F"/>
</g>
<g filter="url(#filter1_d_2153_2291)">
<path d="M47.5664 21V9.576H49.9664V19.112H56.9104V21H47.5664ZM58.0303 21V12.52H60.2383V21H58.0303ZM58.0303 11.176V9.384H60.2383V11.176H58.0303ZM65.0513 21L61.1793 12.52H63.6753L66.2033 18.824L68.8273 12.52H71.3233L67.4513 21H65.0513ZM72.1694 21V12.52H74.3774V14.168H74.4094C75.0014 13.208 75.9134 12.296 77.6094 12.296C77.9454 12.296 78.2014 12.328 78.4894 12.376V14.552C77.8814 14.36 77.4654 14.344 77.0814 14.344C75.9614 14.344 74.3774 14.936 74.3774 16.904V21H72.1694ZM89.6077 17.32H81.6077C81.6557 18.264 82.2957 19.72 84.4877 19.72C85.9437 19.72 86.5837 19.208 87.0157 18.504H89.4157C88.9357 19.448 87.7837 21.32 84.5517 21.32C80.7277 21.32 79.3037 19.096 79.3037 16.84C79.3037 14.008 81.3997 12.2 84.4077 12.2C88.1677 12.2 89.6077 14.52 89.6077 17V17.32ZM81.6077 15.912H87.3037C87.0317 14.216 85.5277 13.704 84.4397 13.704C83.4157 13.704 81.9757 14.184 81.6077 15.912ZM90.6906 18.344H93.0906C93.1546 19.624 94.6266 19.816 95.4266 19.816C96.5306 19.816 97.7306 19.528 97.7306 18.728C97.7306 18.072 97.3626 17.848 94.9786 17.528C92.3546 17.176 90.9786 16.872 90.9786 14.936C90.9786 12.52 93.7946 12.2 95.2186 12.2C96.5306 12.2 99.6826 12.392 99.8106 15.112H97.5066C97.3306 13.848 95.8586 13.704 95.1066 13.704C93.8586 13.704 93.1866 14.232 93.1866 14.68C93.1866 15.368 93.3946 15.48 95.5226 15.784C98.3066 16.184 100.131 16.456 100.131 18.424C100.131 20.584 98.0666 21.32 95.4426 21.32C93.6346 21.32 90.7706 20.936 90.6906 18.344ZM43.2188 33.048V37.064C43.2188 37.528 43.5548 37.544 43.6988 37.544C43.9068 37.544 44.2428 37.528 44.4188 37.496V39.048C43.9868 39.128 43.6028 39.24 42.8508 39.24C41.4108 39.24 41.2508 38.472 41.1868 38.152C40.7548 38.568 39.6828 39.32 37.2028 39.32C34.9948 39.32 33.7467 38.328 33.7467 36.664C33.7467 34.328 36.1468 34.12 37.5548 33.992C40.7228 33.688 41.0588 33.576 41.0588 32.92C41.0588 31.944 39.9388 31.704 38.6588 31.704C37.2028 31.704 36.4188 32.168 36.3388 33.112H34.1788C34.4988 30.888 36.1468 30.2 38.6588 30.2C43.0908 30.2 43.2188 31.944 43.2188 33.048ZM41.0108 35.592V34.776C40.3708 35.048 39.6828 35.128 38.1148 35.304C36.4508 35.496 36.0508 35.864 36.0508 36.584C36.0508 37.704 37.0748 37.912 37.8268 37.912C39.0108 37.912 41.0108 37.464 41.0108 35.592ZM44.9484 36.344H47.3484C47.4124 37.624 48.8844 37.816 49.6844 37.816C50.7884 37.816 51.9884 37.528 51.9884 36.728C51.9884 36.072 51.6204 35.848 49.2364 35.528C46.6124 35.176 45.2364 34.872 45.2364 32.936C45.2364 30.52 48.0524 30.2 49.4764 30.2C50.7884 30.2 53.9404 30.392 54.0684 33.112H51.7644C51.5884 31.848 50.1164 31.704 49.3644 31.704C48.1164 31.704 47.4444 32.232 47.4444 32.68C47.4444 33.368 47.6524 33.48 49.7804 33.784C52.5644 34.184 54.3884 34.456 54.3884 36.424C54.3884 38.584 52.3244 39.32 49.7004 39.32C47.8924 39.32 45.0284 38.936 44.9484 36.344ZM55.3234 36.344H57.7234C57.7874 37.624 59.2594 37.816 60.0594 37.816C61.1634 37.816 62.3634 37.528 62.3634 36.728C62.3634 36.072 61.9954 35.848 59.6114 35.528C56.9874 35.176 55.6114 34.872 55.6114 32.936C55.6114 30.52 58.4274 30.2 59.8514 30.2C61.1634 30.2 64.3154 30.392 64.4434 33.112H62.1394C61.9634 31.848 60.4914 31.704 59.7394 31.704C58.4914 31.704 57.8194 32.232 57.8194 32.68C57.8194 33.368 58.0274 33.48 60.1554 33.784C62.9394 34.184 64.7634 34.456 64.7634 36.424C64.7634 38.584 62.6994 39.32 60.0754 39.32C58.2674 39.32 55.4034 38.936 55.3234 36.344ZM68.0664 34.76C68.0664 36.232 68.8664 37.624 71.0104 37.624C73.1544 37.624 73.9544 36.232 73.9544 34.76C73.9544 33.288 73.1544 31.896 71.0104 31.896C68.8664 31.896 68.0664 33.288 68.0664 34.76ZM65.7624 34.76C65.7624 32.424 67.2184 30.2 71.0104 30.2C74.8024 30.2 76.2584 32.424 76.2584 34.76C76.2584 37.096 74.8024 39.32 71.0104 39.32C67.2184 39.32 65.7624 37.096 65.7624 34.76ZM87.2133 33.496H84.9093C84.7493 32.616 83.8213 31.896 82.5573 31.896C80.5093 31.896 79.6133 33.288 79.6133 34.76C79.6133 36.232 80.4133 37.624 82.3173 37.624C84.0293 37.624 84.4933 36.952 84.9573 35.752H87.2613C86.7493 39.272 83.1493 39.32 82.5573 39.32C78.7653 39.32 77.3092 37.096 77.3092 34.76C77.3092 32.024 79.2773 30.2 82.5573 30.2C83.8373 30.2 86.7493 30.632 87.2133 33.496ZM88.6944 39V30.52H90.9024V39H88.6944ZM88.6944 29.176V27.384H90.9024V29.176H88.6944ZM102.787 35.32H94.7874C94.8354 36.264 95.4754 37.72 97.6674 37.72C99.1234 37.72 99.7634 37.208 100.195 36.504H102.595C102.115 37.448 100.963 39.32 97.7314 39.32C93.9074 39.32 92.4834 37.096 92.4834 34.84C92.4834 32.008 94.5794 30.2 97.5874 30.2C101.347 30.2 102.787 32.52 102.787 35V35.32ZM94.7874 33.912H100.483C100.211 32.216 98.7074 31.704 97.6194 31.704C96.5954 31.704 95.1554 32.184 94.7874 33.912ZM96.3074 29.352L97.7314 27.08H100.451L98.2114 29.352H96.3074ZM103.87 36.344H106.27C106.334 37.624 107.806 37.816 108.606 37.816C109.71 37.816 110.91 37.528 110.91 36.728C110.91 36.072 110.542 35.848 108.158 35.528C105.534 35.176 104.158 34.872 104.158 32.936C104.158 30.52 106.974 30.2 108.398 30.2C109.71 30.2 112.862 30.392 112.99 33.112H110.686C110.51 31.848 109.038 31.704 108.286 31.704C107.038 31.704 106.366 32.232 106.366 32.68C106.366 33.368 106.574 33.48 108.702 33.784C111.486 34.184 113.31 34.456 113.31 36.424C113.31 38.584 111.246 39.32 108.622 39.32C106.814 39.32 103.95 38.936 103.87 36.344Z" fill="black"/>
</g>
<defs>
<filter id="filter0_dddd_2153_2291" x="0" y="0" width="136" height="74" filterUnits="userSpaceOnUse" color-interpolation-filters="sRGB">
<feFlood flood-opacity="0" result="BackgroundImageFix"/>
<feColorMatrix in="SourceAlpha" type="matrix" values="0 0 0 0 0 0 0 0 0 0 0 0 0 0 0 0 0 0 127 0" result="hardAlpha"/>
<feOffset dy="4"/>
<feGaussianBlur stdDeviation="2"/>
<feComposite in2="hardAlpha" operator="out"/>
<feColorMatrix type="matrix" values="0 0 0 0 0 0 0 0 0 0 0 0 0 0 0 0 0 0 0.25 0"/>
<feBlend mode="normal" in2="BackgroundImageFix" result="effect1_dropShadow_2153_2291"/>
<feColorMatrix in="SourceAlpha" type="matrix" values="0 0 0 0 0 0 0 0 0 0 0 0 0 0 0 0 0 0 127 0" result="hardAlpha"/>
<feOffset dy="4"/>
<feGaussianBlur stdDeviation="2"/>
<feComposite in2="hardAlpha" operator="out"/>
<feColorMatrix type="matrix" values="0 0 0 0 0 0 0 0 0 0 0 0 0 0 0 0 0 0 0.25 0"/>
<feBlend mode="normal" in2="effect1_dropShadow_2153_2291" result="effect2_dropShadow_2153_2291"/>
<feColorMatrix in="SourceAlpha" type="matrix" values="0 0 0 0 0 0 0 0 0 0 0 0 0 0 0 0 0 0 127 0" result="hardAlpha"/>
<feOffset dy="4"/>
<feGaussianBlur stdDeviation="2"/>
<feComposite in2="hardAlpha" operator="out"/>
<feColorMatrix type="matrix" values="0 0 0 0 0 0 0 0 0 0 0 0 0 0 0 0 0 0 0.25 0"/>
<feBlend mode="normal" in2="effect2_dropShadow_2153_2291" result="effect3_dropShadow_2153_2291"/>
<feColorMatrix in="SourceAlpha" type="matrix" values="0 0 0 0 0 0 0 0 0 0 0 0 0 0 0 0 0 0 127 0" result="hardAlpha"/>
<feOffset dy="4"/>
<feGaussianBlur stdDeviation="2"/>
<feComposite in2="hardAlpha" operator="out"/>
<feColorMatrix type="matrix" values="0 0 0 0 0 0 0 0 0 0 0 0 0 0 0 0 0 0 0.25 0"/>
<feBlend mode="normal" in2="effect3_dropShadow_2153_2291" result="effect4_dropShadow_2153_2291"/>
<feBlend mode="normal" in="SourceGraphic" in2="effect4_dropShadow_2153_2291" result="shape"/>
</filter>
<filter id="filter1_d_2153_2291" x="29.7467" y="9.384" width="87.5636" height="37.936" filterUnits="userSpaceOnUse" color-interpolation-filters="sRGB">
<feFlood flood-opacity="0" result="BackgroundImageFix"/>
<feColorMatrix in="SourceAlpha" type="matrix" values="0 0 0 0 0 0 0 0 0 0 0 0 0 0 0 0 0 0 127 0" result="hardAlpha"/>
<feOffset dy="4"/>
<feGaussianBlur stdDeviation="2"/>
<feComposite in2="hardAlpha" operator="out"/>
<feColorMatrix type="matrix" values="0 0 0 0 0 0 0 0 0 0 0 0 0 0 0 0 0 0 0.25 0"/>
<feBlend mode="normal" in2="BackgroundImageFix" result="effect1_dropShadow_2153_2291"/>
<feBlend mode="normal" in="SourceGraphic" in2="effect1_dropShadow_2153_2291" result="shape"/>
</filter>
</defs>
</svg>
