<svg width="60" height="61" viewBox="0 0 60 61" fill="none" xmlns="http://www.w3.org/2000/svg">
<path d="M22.2 2.51696C21 3.31696 20 5.11696 20 6.31696C20 7.61696 19.2 9.71696 18.2 10.917C16.6 12.817 16 13.017 14.2 12.017C13 11.417 12 9.91696 12 8.71696C12 6.91696 11.8 6.81696 10.4 8.01696C9.1 9.11696 8.9 10.517 9.4 15.117C10 20.117 9.9 20.917 8.1 21.917C6.4 22.717 5.7 22.617 4.1 21.017C2.1 19.017 2.1 19.017 1.5 20.917C0.8 23.217 2.5 26.817 5.2 28.717C6.4 29.617 7 31.017 6.8 32.717C6.5 35.017 6 35.417 3.3 35.417C1.5 35.417 0 35.717 0 36.117C0 37.817 4.2 40.917 6.4 40.917C9.2 40.917 12.1 44.417 11.3 46.517C11 47.317 9.7 48.217 8.4 48.517C6.4 49.017 6.2 49.417 7.1 50.617C8 51.617 10 51.917 14.3 51.717C19 51.517 20.5 51.717 21.3 53.117C22.2 54.417 22 55.217 20.6 56.817C19.1 58.417 19 58.917 20.1 59.017C23 59.317 24.6 58.717 27.1 56.317C31.4 52.217 36.4 54.217 34.4 59.317C34.1 60.217 34.3 60.917 34.9 60.917C36.7 60.917 40 57.117 40 55.017C40 54.017 40.8 52.117 41.8 50.917C43.4 49.017 44 48.817 45.8 49.817C47 50.417 48 51.917 48 53.117C48 54.917 48.2 55.017 49.6 53.817C50.9 52.717 51.1 51.317 50.6 46.717C50 41.717 50.1 40.917 51.9 39.917C53.6 39.117 54.3 39.217 55.9 40.817C57.9 42.817 57.9 42.817 58.5 40.917C59.2 38.617 57.5 35.017 54.8 33.117C53.6 32.217 53 30.817 53.2 29.117C53.5 26.817 53.9 26.417 56.8 26.517C58.5 26.617 60 26.317 60 25.817C60 24.017 55.9 20.917 53.6 20.917C51.2 20.917 48 18.617 48 16.917C48 15.517 51 12.917 52.7 12.917C54 12.917 54 12.617 52.9 11.317C52 10.217 50.2 9.91696 45.7 10.117C41 10.317 39.5 10.117 38.7 8.71696C37.8 7.41696 38 6.61696 39.4 5.01696C40.9 3.41696 41 2.91696 39.9 2.81696C37 2.51696 35.4 3.11696 32.9 5.51696C28.6 9.61696 23.6 7.61696 25.6 2.51696C26.4 0.516961 25.1 0.416961 22.2 2.51696ZM38.4 17.217C43.9 20.317 46.2 25.017 45.8 32.017C45.1 42.017 38.6 47.517 28.5 46.717C18.9 45.917 13.4 39.317 14.2 29.417C14.7 23.317 17.5 18.917 22.2 16.617C26.9 14.217 33.7 14.517 38.4 17.217Z" fill="#F8F8F8"/>
<path d="M25.5 20.817C21.5 22.617 19.5 25.917 19.5 31.017C19.5 35.017 20 36.417 22.3 38.617C24.6 40.917 25.9 41.417 30 41.417C34.1 41.417 35.4 40.917 37.7 38.617C40 36.317 40.5 35.017 40.5 30.917C40.5 26.917 40 25.417 37.9 23.317C35.1 20.517 29 19.317 25.5 20.817ZM34.2 26.617C36.4 28.617 36.5 32.717 34.3 35.117C30.9 38.917 24 36.217 24 31.117C24 25.717 30.2 23.017 34.2 26.617Z" fill="#F8F8F8"/>
</svg>
